%TF.GenerationSoftware,KiCad,Pcbnew,(6.0.2)*%
%TF.CreationDate,2022-05-20T20:38:17-05:00*%
%TF.ProjectId,REF1326_Optimized,52454631-3332-4365-9f4f-7074696d697a,rev?*%
%TF.SameCoordinates,Original*%
%TF.FileFunction,Copper,L2,Bot*%
%TF.FilePolarity,Positive*%
%FSLAX46Y46*%
G04 Gerber Fmt 4.6, Leading zero omitted, Abs format (unit mm)*
G04 Created by KiCad (PCBNEW (6.0.2)) date 2022-05-20 20:38:17*
%MOMM*%
%LPD*%
G01*
G04 APERTURE LIST*
%TA.AperFunction,ComponentPad*%
%ADD10R,1.600000X1.600000*%
%TD*%
%TA.AperFunction,ComponentPad*%
%ADD11C,1.600000*%
%TD*%
%TA.AperFunction,ComponentPad*%
%ADD12C,1.830000*%
%TD*%
%TA.AperFunction,ComponentPad*%
%ADD13C,1.590000*%
%TD*%
%TA.AperFunction,ComponentPad*%
%ADD14C,3.850000*%
%TD*%
%TA.AperFunction,ViaPad*%
%ADD15C,3.400000*%
%TD*%
%TA.AperFunction,ViaPad*%
%ADD16C,0.800000*%
%TD*%
%TA.AperFunction,Conductor*%
%ADD17C,0.250000*%
%TD*%
%TA.AperFunction,Conductor*%
%ADD18C,0.550000*%
%TD*%
%TA.AperFunction,Conductor*%
%ADD19C,0.200000*%
%TD*%
G04 APERTURE END LIST*
D10*
%TO.P,Z2,1,1*%
%TO.N,unconnected-(Z2-Pad1)*%
X127696000Y-75323000D03*
D11*
%TO.P,Z2,2,2*%
%TO.N,/Wire_21*%
X130466000Y-75323000D03*
%TO.P,Z2,3,3*%
%TO.N,/Wire_20*%
X133236000Y-75323000D03*
%TO.P,Z2,4,4*%
%TO.N,/Wire_19*%
X136006000Y-75323000D03*
%TO.P,Z2,5,5*%
%TO.N,/Wire_18*%
X138776000Y-75323000D03*
%TO.P,Z2,6,6*%
%TO.N,/Wire_1*%
X141546000Y-75323000D03*
%TO.P,Z2,7,7*%
%TO.N,unconnected-(Z2-Pad7)*%
X144316000Y-75323000D03*
%TO.P,Z2,8,8*%
%TO.N,unconnected-(Z2-Pad8)*%
X147086000Y-75323000D03*
%TO.P,Z2,9,9*%
%TO.N,unconnected-(Z2-Pad9)*%
X149856000Y-75323000D03*
%TO.P,Z2,10,10*%
%TO.N,/Wire_24*%
X152626000Y-75323000D03*
%TO.P,Z2,11,11*%
%TO.N,/Wire_25*%
X155396000Y-75323000D03*
%TO.P,Z2,12,12*%
%TO.N,/Wire_23*%
X158166000Y-75323000D03*
%TO.P,Z2,13,13*%
%TO.N,/Wire_22*%
X160936000Y-75323000D03*
%TO.P,Z2,14,P14*%
%TO.N,unconnected-(Z2-Pad14)*%
X129081000Y-78163000D03*
%TO.P,Z2,15,P15*%
%TO.N,/Wire_26*%
X131851000Y-78163000D03*
%TO.P,Z2,16,P16*%
%TO.N,/Wire_9*%
X134621000Y-78163000D03*
%TO.P,Z2,17,P17*%
%TO.N,unconnected-(Z2-Pad17)*%
X137391000Y-78163000D03*
%TO.P,Z2,18,P18*%
%TO.N,/GND*%
X140161000Y-78163000D03*
%TO.P,Z2,19,P19*%
X142931000Y-78163000D03*
%TO.P,Z2,20,P20*%
X145701000Y-78163000D03*
%TO.P,Z2,21,P21*%
X148471000Y-78163000D03*
%TO.P,Z2,22,P22*%
X151241000Y-78163000D03*
%TO.P,Z2,23,P23*%
X154011000Y-78163000D03*
%TO.P,Z2,24,P24*%
X156781000Y-78163000D03*
%TO.P,Z2,25,P25*%
X159551000Y-78163000D03*
%TD*%
D12*
%TO.P,Z1,1,1*%
%TO.N,/GND*%
X120549000Y-81397000D03*
%TO.P,Z1,2,2*%
%TO.N,/Wire_2*%
X118406000Y-80124000D03*
%TO.P,Z1,3,3*%
%TO.N,/GND*%
X118366000Y-75673000D03*
%TO.P,Z1,4,4*%
X120549000Y-74367000D03*
%TD*%
D13*
%TO.P,Z3,1*%
%TO.N,/Parallel_1*%
X124555000Y-118591000D03*
%TO.P,Z3,2*%
%TO.N,/Parallel_2*%
X127091000Y-118550000D03*
%TO.P,Z3,3*%
%TO.N,/Parallel_3*%
X129634300Y-118550000D03*
%TO.P,Z3,4*%
%TO.N,/Parallel_4*%
X132213000Y-118549000D03*
%TO.P,Z3,5*%
%TO.N,/Parallel_5*%
X134751000Y-118510300D03*
%TO.P,Z3,6*%
%TO.N,/Parallel_6*%
X137291000Y-118510300D03*
%TO.P,Z3,7*%
%TO.N,/Parallel_7*%
X139873700Y-118550000D03*
%TO.P,Z3,8*%
%TO.N,/Parallel_8*%
X142410000Y-118511000D03*
%TO.P,Z3,9*%
%TO.N,/Parallel_9*%
X144953000Y-118512000D03*
%TO.P,Z3,10*%
%TO.N,/Parallel_10*%
X147530000Y-118507000D03*
%TO.P,Z3,11*%
%TO.N,/Parallel_11*%
X150070000Y-118470000D03*
%TO.P,Z3,12*%
%TO.N,/Parallel_12*%
X152614000Y-118471000D03*
%TO.P,Z3,13*%
%TO.N,/Parallel_13*%
X155193100Y-118508000D03*
%TO.P,Z3,14*%
%TO.N,/Parallel_14*%
X157732000Y-118470000D03*
%TO.P,Z3,15*%
%TO.N,/Parallel_15*%
X160272000Y-118469000D03*
%TO.P,Z3,16*%
%TO.N,/Parallel_16*%
X162851000Y-118511000D03*
%TO.P,Z3,17*%
%TO.N,/Parallel_17*%
X165392800Y-118470600D03*
%TO.P,Z3,18*%
%TO.N,/Parallel_18*%
X164122800Y-120375600D03*
%TO.P,Z3,19*%
%TO.N,/Parallel_19*%
X161582000Y-120415000D03*
%TO.P,Z3,20*%
%TO.N,/Parallel_20*%
X159003100Y-120375600D03*
%TO.P,Z3,21*%
%TO.N,/Parallel_21*%
X156463100Y-120375600D03*
%TO.P,Z3,22*%
%TO.N,/Parallel_22*%
X153921000Y-120416000D03*
%TO.P,Z3,23*%
%TO.N,/Parallel_23*%
X151341000Y-120375000D03*
%TO.P,Z3,24*%
%TO.N,/Parallel_24*%
X148805000Y-120376000D03*
%TO.P,Z3,25*%
%TO.N,/Parallel_25*%
X146263400Y-120415300D03*
%TO.P,Z3,26*%
%TO.N,/Parallel_26*%
X143683700Y-120415300D03*
%TO.P,Z3,27*%
%TO.N,/Parallel_27*%
X141143700Y-120411000D03*
%TO.P,Z3,28*%
%TO.N,/Parallel_28*%
X138603000Y-120454000D03*
%TO.P,Z3,29*%
%TO.N,/Parallel_29*%
X136021000Y-120415000D03*
%TO.P,Z3,30*%
%TO.N,/Parallel_30*%
X133484000Y-120414000D03*
%TO.P,Z3,31*%
%TO.N,/Parallel_31*%
X130943000Y-120452000D03*
%TO.P,Z3,32*%
%TO.N,/Parallel_32*%
X128362000Y-120455000D03*
%TO.P,Z3,33*%
%TO.N,/Parallel_33*%
X125821000Y-120454000D03*
%TO.P,Z3,34*%
%TO.N,/GND*%
X123284300Y-120494600D03*
%TO.P,Z3,35*%
%TO.N,/Parallel_35*%
X124554300Y-122399600D03*
%TO.P,Z3,36*%
%TO.N,/Parallel_36*%
X127094300Y-122360000D03*
%TO.P,Z3,37*%
%TO.N,/Parallel_37*%
X129633000Y-122360000D03*
%TO.P,Z3,38*%
%TO.N,/Parallel_38*%
X132215000Y-122361000D03*
%TO.P,Z3,39*%
%TO.N,/Parallel_39*%
X134754000Y-122317000D03*
%TO.P,Z3,40*%
%TO.N,/Parallel_40*%
X137294000Y-122320300D03*
%TO.P,Z3,41*%
%TO.N,/Parallel_41*%
X139873700Y-122360000D03*
%TO.P,Z3,42*%
%TO.N,/Parallel_42*%
X142412000Y-122320000D03*
%TO.P,Z3,43*%
%TO.N,/Parallel_43*%
X144954000Y-122318000D03*
%TO.P,Z3,44*%
%TO.N,/Parallel_44*%
X147530000Y-122318000D03*
%TO.P,Z3,45*%
%TO.N,/Parallel_45*%
X150073400Y-122280600D03*
%TO.P,Z3,46*%
%TO.N,/Parallel_46*%
X152613000Y-122278000D03*
%TO.P,Z3,47*%
%TO.N,/Parallel_47*%
X155194000Y-122318000D03*
%TO.P,Z3,48*%
%TO.N,/Parallel_48*%
X157730000Y-122281000D03*
%TO.P,Z3,49*%
%TO.N,/Parallel_49*%
X160271000Y-122281000D03*
%TO.P,Z3,50*%
%TO.N,/Parallel_50*%
X162852000Y-122317000D03*
%TO.P,Z3,51*%
%TO.N,/GND*%
X165392800Y-122280600D03*
%TO.P,Z3,52*%
%TO.N,/Parallel_52*%
X164122800Y-124185600D03*
%TO.P,Z3,53*%
%TO.N,/Parallel_53*%
X161580000Y-124226000D03*
%TO.P,Z3,54*%
%TO.N,/Parallel_54*%
X159002000Y-124183000D03*
%TO.P,Z3,55*%
%TO.N,/Parallel_55*%
X156463100Y-124185600D03*
%TO.P,Z3,56*%
%TO.N,/Parallel_56*%
X153924000Y-124224000D03*
%TO.P,Z3,57*%
%TO.N,/Parallel_57*%
X151342000Y-124185000D03*
%TO.P,Z3,58*%
%TO.N,/Parallel_58*%
X148803400Y-124185600D03*
%TO.P,Z3,59*%
%TO.N,/Parallel_59*%
X146264000Y-124223000D03*
%TO.P,Z3,60*%
%TO.N,/Parallel_60*%
X143683000Y-124222000D03*
%TO.P,Z3,61*%
%TO.N,/Parallel_61*%
X141144000Y-124224000D03*
%TO.P,Z3,62*%
%TO.N,/Parallel_62*%
X138605000Y-124265000D03*
%TO.P,Z3,63*%
%TO.N,/Parallel_63*%
X136022000Y-124224000D03*
%TO.P,Z3,64*%
%TO.N,/Parallel_64*%
X133483000Y-124224000D03*
%TO.P,Z3,65*%
%TO.N,/Parallel_65*%
X130944000Y-124265000D03*
%TO.P,Z3,66*%
%TO.N,/Parallel_66*%
X128361000Y-124264000D03*
%TO.P,Z3,67*%
%TO.N,/Parallel_67*%
X125824000Y-124263000D03*
%TO.P,Z3,68*%
%TO.N,/GND*%
X123283000Y-124304600D03*
D14*
%TO.P,Z3,69*%
%TO.N,N/C*%
X118197000Y-121483000D03*
%TO.P,Z3,70*%
X170552000Y-121485000D03*
%TD*%
D15*
%TO.N,*%
X166831000Y-132439000D03*
X121785000Y-132440000D03*
D16*
%TO.N,/Wire_26*%
X156456000Y-83014500D03*
%TO.N,/Wire_22*%
X147744000Y-88119500D03*
%TO.N,/Wire_23*%
X151239000Y-86943900D03*
%TO.N,/Wire_9*%
X120453000Y-110762000D03*
%TO.N,/Wire_6*%
X121994000Y-102760000D03*
X157569000Y-86437700D03*
%TO.N,/Wire_5*%
X132130000Y-87914700D03*
X117864000Y-104346000D03*
%TO.N,/Wire_1*%
X123150000Y-105177000D03*
X138578000Y-86983100D03*
%TO.N,/Wire_14*%
X137045000Y-99480900D03*
X128575000Y-97125900D03*
%TO.N,/Wire_15*%
X136045000Y-99480900D03*
X129426000Y-97689900D03*
%TO.N,/Wire_11*%
X125627000Y-97069200D03*
X147073000Y-99233000D03*
%TO.N,/Wire_12*%
X142958000Y-97013200D03*
X127628000Y-95934800D03*
%TO.N,/Parallel_49*%
X129052000Y-105011000D03*
X145496000Y-105866000D03*
X161135000Y-116118000D03*
%TO.N,/Parallel_21*%
X129043000Y-109855000D03*
X153856000Y-115231000D03*
X145671000Y-108263000D03*
%TO.N,/Parallel_15*%
X128904000Y-106048000D03*
X138033000Y-106048000D03*
%TO.N,/Parallel_2*%
X140559000Y-108287000D03*
%TO.N,/Parallel_1*%
X124929000Y-97865700D03*
%TO.N,/Parallel_47*%
X154187000Y-101942000D03*
X129061000Y-103549000D03*
X141881000Y-103969000D03*
X150940000Y-113876000D03*
%TO.N,/Wire_7*%
X122870000Y-102179000D03*
X163822000Y-96060300D03*
%TO.N,/Wire_17*%
X154190000Y-105900000D03*
X137995000Y-107623000D03*
%TO.N,/Wire_16*%
X149660000Y-102531000D03*
X138081000Y-103261000D03*
%TO.N,/VCC*%
X127108000Y-113536000D03*
X152947000Y-106484000D03*
X140657000Y-109850000D03*
%TO.N,/Parallel_56*%
X124822000Y-59851400D03*
X168655000Y-114719000D03*
X149384000Y-61501800D03*
X160007000Y-115195000D03*
X159320000Y-109638000D03*
%TO.N,/Wire_13*%
X121260000Y-77763200D03*
X134310000Y-87069000D03*
%TO.N,/Wire_3*%
X125444000Y-60643900D03*
X148468000Y-73252400D03*
X118245000Y-99086800D03*
X159223000Y-82708500D03*
%TO.N,/Parallel_46*%
X153159000Y-59597400D03*
X160685000Y-108174000D03*
X126341000Y-59138200D03*
%TO.N,/Parallel_11*%
X131115000Y-60054500D03*
X158598000Y-106108000D03*
X154589000Y-59427200D03*
%TO.N,/Parallel_45*%
X162513000Y-109205000D03*
X155699000Y-59343400D03*
X129441000Y-59302100D03*
%TO.N,/Parallel_57*%
X163642000Y-109707000D03*
X163280000Y-116498000D03*
%TO.N,/Wire_4*%
X117552000Y-101003000D03*
X158042000Y-59437400D03*
X131739000Y-54597000D03*
%TO.N,/Parallel_23*%
X132767000Y-54595000D03*
X169053000Y-117221000D03*
X159530000Y-59263100D03*
%TO.N,/Wire_8*%
X117866000Y-108736000D03*
X160778000Y-59181600D03*
X133995000Y-54602500D03*
%TO.N,/Parallel_64*%
X162086000Y-59178800D03*
X140749000Y-92599200D03*
X164710000Y-94377800D03*
X135268000Y-54603800D03*
%TO.N,/Parallel_30*%
X139509000Y-91341100D03*
X165437000Y-90954400D03*
%TO.N,/Parallel_38*%
X166612000Y-93066300D03*
X135573000Y-126771000D03*
X138578000Y-92597600D03*
%TO.N,/Parallel_4*%
X139477000Y-54055000D03*
X136952000Y-92253300D03*
X166480000Y-88907000D03*
X165610000Y-54633700D03*
X155176000Y-88826600D03*
%TO.N,/Parallel_65*%
X136018000Y-95697300D03*
X154375000Y-95634500D03*
X163661000Y-102623000D03*
X145638000Y-113451000D03*
%TO.N,/Parallel_31*%
X134935000Y-92589500D03*
X163830000Y-93150200D03*
X153410000Y-92728000D03*
X139286000Y-113472000D03*
X164167000Y-103532000D03*
%TO.N,/Parallel_37*%
X164277000Y-85694900D03*
X126944000Y-126566000D03*
X166438000Y-107221000D03*
X139450000Y-80160100D03*
X150056000Y-88863900D03*
X132811000Y-91716900D03*
%TO.N,/Parallel_3*%
X136580000Y-71001000D03*
X167417000Y-109509000D03*
X149253000Y-99430600D03*
X125563000Y-98652900D03*
X137354000Y-113328000D03*
X163673000Y-71041500D03*
X131642000Y-98711800D03*
X163721000Y-105144000D03*
%TO.N,/Parallel_7*%
X138856000Y-127771000D03*
X162208000Y-65700800D03*
X168379000Y-113501000D03*
X136768000Y-64862800D03*
%TO.N,/Parallel_41*%
X134037000Y-71018600D03*
X139874000Y-127771000D03*
X166392000Y-109873000D03*
X160860000Y-71041800D03*
%TO.N,/Parallel_27*%
X165770000Y-108905000D03*
X160058000Y-71655200D03*
X138270000Y-71610900D03*
X136911000Y-127084000D03*
%TO.N,/Parallel_61*%
X158370000Y-65968500D03*
X157730000Y-104388000D03*
X132921000Y-65512600D03*
X129047000Y-107144000D03*
X146507000Y-65657800D03*
X149241000Y-104823000D03*
%TO.N,/Parallel_10*%
X159784000Y-113508000D03*
X132651000Y-104705000D03*
X154581000Y-114351000D03*
X156770000Y-66501300D03*
X130225000Y-71042500D03*
X145650000Y-104493000D03*
%TO.N,/Parallel_44*%
X157688000Y-107898000D03*
X155769000Y-66505900D03*
X130092000Y-101170000D03*
X128913000Y-71033600D03*
X131760000Y-101266000D03*
%TO.N,/Parallel_24*%
X158969000Y-114108000D03*
X148915000Y-66484800D03*
X128218000Y-66487700D03*
X155306000Y-115356000D03*
%TO.N,/Parallel_58*%
X167072000Y-114263000D03*
X126612000Y-71032000D03*
X152579000Y-66526100D03*
%TO.N,/Parallel_12*%
X125087000Y-71402400D03*
X156407000Y-101294000D03*
X151927000Y-71741400D03*
%TO.N,/Parallel_22*%
X150654000Y-66425700D03*
X124985000Y-66451900D03*
X157764000Y-102169000D03*
%TO.N,/Parallel_13*%
X150359000Y-71741400D03*
X150969000Y-101754000D03*
X126905000Y-72054700D03*
X155010000Y-112734000D03*
%TO.N,/GND*%
X166025000Y-76710400D03*
X129014000Y-89972600D03*
X124318000Y-108547000D03*
X120750900Y-84591600D03*
%TD*%
D17*
%TO.N,/Wire_26*%
X133022000Y-76992500D02*
X131851000Y-78163000D01*
X135092000Y-76992500D02*
X133022000Y-76992500D01*
X136006000Y-77906000D02*
X135092000Y-76992500D01*
X136006000Y-78440900D02*
X136006000Y-77906000D01*
X136986000Y-79420900D02*
X136006000Y-78440900D01*
X152862000Y-79420900D02*
X136986000Y-79420900D01*
X156456000Y-83014500D02*
X152862000Y-79420900D01*
%TO.N,/Wire_22*%
X152044000Y-83819100D02*
X147744000Y-88119500D01*
X160022000Y-83819100D02*
X152044000Y-83819100D01*
X166751000Y-77090800D02*
X160022000Y-83819100D01*
X166751000Y-76409900D02*
X166751000Y-77090800D01*
X166326000Y-75985100D02*
X166751000Y-76409900D01*
X161598000Y-75985100D02*
X166326000Y-75985100D01*
X160936000Y-75323000D02*
X161598000Y-75985100D01*
%TO.N,/Wire_23*%
X159341000Y-74147900D02*
X158166000Y-75323000D01*
X162233000Y-74147900D02*
X159341000Y-74147900D01*
X163620000Y-75534800D02*
X162233000Y-74147900D01*
X166512000Y-75534800D02*
X163620000Y-75534800D01*
X167201000Y-76223300D02*
X166512000Y-75534800D01*
X167201000Y-77300200D02*
X167201000Y-76223300D01*
X159278000Y-85223000D02*
X167201000Y-77300200D01*
X152960000Y-85223000D02*
X159278000Y-85223000D01*
X151239000Y-86943900D02*
X152960000Y-85223000D01*
%TO.N,/Wire_9*%
X120344000Y-110652000D02*
X120453000Y-110762000D01*
X120344000Y-98086300D02*
X120344000Y-110652000D01*
X126964000Y-91465400D02*
X120344000Y-98086300D01*
X130965000Y-91465400D02*
X126964000Y-91465400D01*
X135037000Y-87393800D02*
X130965000Y-91465400D01*
X135037000Y-78578800D02*
X135037000Y-87393800D01*
X134621000Y-78163000D02*
X135037000Y-78578800D01*
%TO.N,/Wire_6*%
X121994000Y-98346200D02*
X121994000Y-102760000D01*
X126350000Y-93990400D02*
X121994000Y-98346200D01*
X132493000Y-93990400D02*
X126350000Y-93990400D01*
X136831000Y-89652100D02*
X132493000Y-93990400D01*
X150435000Y-89652100D02*
X136831000Y-89652100D01*
X153649000Y-86437700D02*
X150435000Y-89652100D01*
X157569000Y-86437700D02*
X153649000Y-86437700D01*
%TO.N,/Wire_5*%
X119893000Y-102318000D02*
X117864000Y-104346000D01*
X119893000Y-97894900D02*
X119893000Y-102318000D01*
X126841000Y-90947400D02*
X119893000Y-97894900D01*
X129098000Y-90947400D02*
X126841000Y-90947400D01*
X132130000Y-87914700D02*
X129098000Y-90947400D01*
%TO.N,/Wire_1*%
X132246000Y-93314800D02*
X138578000Y-86983100D01*
X126389000Y-93314800D02*
X132246000Y-93314800D01*
X121269000Y-98434700D02*
X126389000Y-93314800D01*
X121269000Y-103296000D02*
X121269000Y-98434700D01*
X123150000Y-105177000D02*
X121269000Y-103296000D01*
%TO.N,/Wire_14*%
X137045000Y-99455500D02*
X137045000Y-99480900D01*
X134527000Y-96936800D02*
X137045000Y-99455500D01*
X128764000Y-96936800D02*
X134527000Y-96936800D01*
X128575000Y-97125900D02*
X128764000Y-96936800D01*
%TO.N,/Wire_15*%
X134254000Y-97689900D02*
X136045000Y-99480900D01*
X129426000Y-97689900D02*
X134254000Y-97689900D01*
%TO.N,/Wire_11*%
X127606000Y-97069200D02*
X125627000Y-97069200D01*
X128274000Y-96400600D02*
X127606000Y-97069200D01*
X134627000Y-96400600D02*
X128274000Y-96400600D01*
X136982000Y-98755600D02*
X134627000Y-96400600D01*
X146595000Y-98755600D02*
X136982000Y-98755600D01*
X147073000Y-99233000D02*
X146595000Y-98755600D01*
%TO.N,/Wire_12*%
X135877000Y-97013200D02*
X142958000Y-97013200D01*
X134798000Y-95934800D02*
X135877000Y-97013200D01*
X127628000Y-95934800D02*
X134798000Y-95934800D01*
%TO.N,/Parallel_49*%
X161410000Y-115843000D02*
X161135000Y-116118000D01*
X161410000Y-109765000D02*
X161410000Y-115843000D01*
X161337000Y-109692000D02*
X161410000Y-109765000D01*
X161337000Y-108718000D02*
X161337000Y-109692000D01*
X161410000Y-108645000D02*
X161337000Y-108718000D01*
X161410000Y-104150000D02*
X161410000Y-108645000D01*
X157342000Y-100081000D02*
X161410000Y-104150000D01*
X150979000Y-100081000D02*
X157342000Y-100081000D01*
X150155000Y-100905000D02*
X150979000Y-100081000D01*
X148986000Y-100905000D02*
X150155000Y-100905000D01*
X148785000Y-101107000D02*
X148986000Y-100905000D01*
X135371000Y-101107000D02*
X148785000Y-101107000D01*
X134258000Y-99993900D02*
X135371000Y-101107000D01*
X129605000Y-99993900D02*
X134258000Y-99993900D01*
X128309000Y-101290000D02*
X129605000Y-99993900D01*
X128309000Y-104267000D02*
X128309000Y-101290000D01*
X129052000Y-105011000D02*
X128309000Y-104267000D01*
X129481000Y-105439000D02*
X129052000Y-105011000D01*
X137616000Y-105439000D02*
X129481000Y-105439000D01*
X137733000Y-105323000D02*
X137616000Y-105439000D01*
X144952000Y-105323000D02*
X137733000Y-105323000D01*
X145496000Y-105866000D02*
X144952000Y-105323000D01*
%TO.N,/Parallel_21*%
X144969000Y-107562000D02*
X145671000Y-108263000D01*
X139164000Y-107562000D02*
X144969000Y-107562000D01*
X138371000Y-108355000D02*
X139164000Y-107562000D01*
X130543000Y-108355000D02*
X138371000Y-108355000D01*
X129043000Y-109855000D02*
X130543000Y-108355000D01*
X156463000Y-120376000D02*
X156463000Y-119889500D01*
X156463000Y-117838000D02*
X153856000Y-115231000D01*
X156463000Y-119889500D02*
X156463000Y-117838000D01*
X156463100Y-119889600D02*
X156463100Y-120375600D01*
X156463000Y-119889500D02*
X156463100Y-119889600D01*
%TO.N,/Parallel_15*%
X161861000Y-116880000D02*
X160272000Y-118469000D01*
X161861000Y-109578000D02*
X161861000Y-116880000D01*
X161788000Y-109505000D02*
X161861000Y-109578000D01*
X161788000Y-108904000D02*
X161788000Y-109505000D01*
X161861000Y-108831000D02*
X161788000Y-108904000D01*
X161861000Y-103963000D02*
X161861000Y-108831000D01*
X157528000Y-99630900D02*
X161861000Y-103963000D01*
X150676000Y-99630900D02*
X157528000Y-99630900D01*
X149852000Y-100455000D02*
X150676000Y-99630900D01*
X148800000Y-100455000D02*
X149852000Y-100455000D01*
X148598000Y-100657000D02*
X148800000Y-100455000D01*
X135558000Y-100657000D02*
X148598000Y-100657000D01*
X134445000Y-99543600D02*
X135558000Y-100657000D01*
X129418000Y-99543600D02*
X134445000Y-99543600D01*
X127836000Y-101127000D02*
X129418000Y-99543600D01*
X127836000Y-104979000D02*
X127836000Y-101127000D01*
X128904000Y-106048000D02*
X127836000Y-104979000D01*
X128904000Y-106048000D02*
X138033000Y-106048000D01*
%TO.N,/Parallel_2*%
X126381000Y-117840000D02*
X127091000Y-118550000D01*
X126381000Y-113194000D02*
X126381000Y-117840000D01*
X126836000Y-112739000D02*
X126381000Y-113194000D01*
X127344000Y-112739000D02*
X126836000Y-112739000D01*
X130959000Y-109124000D02*
X127344000Y-112739000D01*
X139722000Y-109124000D02*
X130959000Y-109124000D01*
X140559000Y-108287000D02*
X139722000Y-109124000D01*
%TO.N,/Parallel_1*%
X124788000Y-98006400D02*
X124929000Y-97865700D01*
X124788000Y-107869000D02*
X124788000Y-98006400D01*
X125047000Y-108128000D02*
X124788000Y-107869000D01*
X125047000Y-118099000D02*
X125047000Y-108128000D01*
X124555000Y-118591000D02*
X125047000Y-118099000D01*
%TO.N,/Parallel_47*%
X141858000Y-103992000D02*
X141881000Y-103969000D01*
X134308000Y-103992000D02*
X141858000Y-103992000D01*
X133865000Y-103549000D02*
X134308000Y-103992000D01*
X129061000Y-103549000D02*
X133865000Y-103549000D01*
X129061000Y-101175000D02*
X129061000Y-103549000D01*
X129792000Y-100444000D02*
X129061000Y-101175000D01*
X134072000Y-100444000D02*
X129792000Y-100444000D01*
X135185000Y-101557000D02*
X134072000Y-100444000D01*
X148971000Y-101557000D02*
X135185000Y-101557000D01*
X149173000Y-101356000D02*
X148971000Y-101557000D01*
X150342000Y-101356000D02*
X149173000Y-101356000D01*
X150669000Y-101029000D02*
X150342000Y-101356000D01*
X153274000Y-101029000D02*
X150669000Y-101029000D01*
X154187000Y-101942000D02*
X153274000Y-101029000D01*
X151329000Y-114265000D02*
X150940000Y-113876000D01*
X151329000Y-118771000D02*
X151329000Y-114265000D01*
X152501000Y-119943000D02*
X151329000Y-118771000D01*
X152501000Y-120799000D02*
X152501000Y-119943000D01*
X151493000Y-121808000D02*
X152501000Y-120799000D01*
X151493000Y-122747000D02*
X151493000Y-121808000D01*
X152144000Y-123398000D02*
X151493000Y-122747000D01*
X153163000Y-123398000D02*
X152144000Y-123398000D01*
X154244000Y-122318000D02*
X153163000Y-123398000D01*
X155194000Y-122318000D02*
X154244000Y-122318000D01*
%TO.N,/Wire_7*%
X122870000Y-98115000D02*
X122870000Y-102179000D01*
X126226000Y-94759200D02*
X122870000Y-98115000D01*
X162521000Y-94759200D02*
X126226000Y-94759200D01*
X163822000Y-96060300D02*
X162521000Y-94759200D01*
%TO.N,/Wire_17*%
X154014000Y-105724000D02*
X154190000Y-105900000D01*
X152415000Y-105724000D02*
X154014000Y-105724000D01*
X151032000Y-107108000D02*
X152415000Y-105724000D01*
X138636000Y-107108000D02*
X151032000Y-107108000D01*
X138121000Y-107623000D02*
X138636000Y-107108000D01*
X137995000Y-107623000D02*
X138121000Y-107623000D01*
%TO.N,/Wire_16*%
X138811000Y-102531000D02*
X138081000Y-103261000D01*
X149660000Y-102531000D02*
X138811000Y-102531000D01*
D18*
%TO.N,/VCC*%
X149581000Y-109850000D02*
X140657000Y-109850000D01*
X152947000Y-106484000D02*
X149581000Y-109850000D01*
X127439000Y-113536000D02*
X127108000Y-113536000D01*
X131126000Y-109850000D02*
X127439000Y-113536000D01*
X140657000Y-109850000D02*
X131126000Y-109850000D01*
D17*
%TO.N,/Parallel_56*%
X127423000Y-61501800D02*
X149384000Y-61501800D01*
X125773000Y-59851400D02*
X127423000Y-61501800D01*
X124822000Y-59851400D02*
X125773000Y-59851400D01*
X170193000Y-113181000D02*
X168655000Y-114719000D01*
X170193000Y-72646900D02*
X170193000Y-113181000D01*
X159048000Y-61501800D02*
X170193000Y-72646900D01*
X149384000Y-61501800D02*
X159048000Y-61501800D01*
X160510000Y-110827000D02*
X159320000Y-109638000D01*
X160510000Y-114692000D02*
X160510000Y-110827000D01*
X160007000Y-115195000D02*
X160510000Y-114692000D01*
%TO.N,/Wire_13*%
X125004000Y-77763200D02*
X121260000Y-77763200D01*
X134310000Y-87069000D02*
X125004000Y-77763200D01*
%TO.N,/Wire_3*%
X148462000Y-73258400D02*
X148468000Y-73252400D01*
X125874000Y-73258400D02*
X148462000Y-73258400D01*
X123975000Y-71360000D02*
X125874000Y-73258400D01*
X117126000Y-97967200D02*
X118245000Y-99086800D01*
X117126000Y-75140800D02*
X117126000Y-97967200D01*
X120906000Y-71360000D02*
X117126000Y-75140800D01*
X123975000Y-71360000D02*
X120906000Y-71360000D01*
X123975000Y-62112300D02*
X125444000Y-60643900D01*
X123975000Y-71360000D02*
X123975000Y-62112300D01*
X158166000Y-81651900D02*
X159223000Y-82708500D01*
X158166000Y-77906000D02*
X158166000Y-81651900D01*
X157252000Y-76992500D02*
X158166000Y-77906000D01*
X152625000Y-76992500D02*
X157252000Y-76992500D01*
X151241000Y-75608600D02*
X152625000Y-76992500D01*
X151241000Y-75107700D02*
X151241000Y-75608600D01*
X149386000Y-73252400D02*
X151241000Y-75107700D01*
X148468000Y-73252400D02*
X149386000Y-73252400D01*
%TO.N,/Parallel_46*%
X152138000Y-58576800D02*
X153159000Y-59597400D01*
X126902000Y-58576800D02*
X152138000Y-58576800D01*
X126341000Y-59138200D02*
X126902000Y-58576800D01*
X153355000Y-121536000D02*
X152613000Y-122278000D01*
X154391000Y-121536000D02*
X153355000Y-121536000D01*
X154784000Y-121143000D02*
X154391000Y-121536000D01*
X155625000Y-121143000D02*
X154784000Y-121143000D01*
X155981000Y-121499000D02*
X155625000Y-121143000D01*
X156924000Y-121499000D02*
X155981000Y-121499000D01*
X157883000Y-120540000D02*
X156924000Y-121499000D01*
X157883000Y-119908000D02*
X157883000Y-120540000D01*
X159152000Y-118639000D02*
X157883000Y-119908000D01*
X159152000Y-117076000D02*
X159152000Y-118639000D01*
X160960000Y-115268000D02*
X159152000Y-117076000D01*
X160960000Y-109952000D02*
X160960000Y-115268000D01*
X160685000Y-109676000D02*
X160960000Y-109952000D01*
X160685000Y-108174000D02*
X160685000Y-109676000D01*
%TO.N,/Parallel_11*%
X153690000Y-60326100D02*
X154589000Y-59427200D01*
X131387000Y-60326100D02*
X153690000Y-60326100D01*
X131115000Y-60054500D02*
X131387000Y-60326100D01*
X157677000Y-106108000D02*
X158598000Y-106108000D01*
X150070000Y-113715000D02*
X157677000Y-106108000D01*
X150070000Y-118470000D02*
X150070000Y-113715000D01*
%TO.N,/Parallel_45*%
X154266000Y-60776400D02*
X155699000Y-59343400D01*
X131419000Y-60776400D02*
X154266000Y-60776400D01*
X131416000Y-60779800D02*
X131419000Y-60776400D01*
X130815000Y-60779800D02*
X131416000Y-60779800D01*
X129441000Y-59406200D02*
X130815000Y-60779800D01*
X129441000Y-59302100D02*
X129441000Y-59406200D01*
X150073000Y-124512000D02*
X150073000Y-122785400D01*
X150938000Y-125376000D02*
X150073000Y-124512000D01*
X156884000Y-125376000D02*
X150938000Y-125376000D01*
X157734000Y-124526000D02*
X156884000Y-125376000D01*
X157734000Y-123864000D02*
X157734000Y-124526000D01*
X159151000Y-122447000D02*
X157734000Y-123864000D01*
X159151000Y-121817000D02*
X159151000Y-122447000D01*
X160452000Y-120516000D02*
X159151000Y-121817000D01*
X160452000Y-119961000D02*
X160452000Y-120516000D01*
X161721000Y-118692000D02*
X160452000Y-119961000D01*
X161721000Y-117657000D02*
X161721000Y-118692000D01*
X162513000Y-116865000D02*
X161721000Y-117657000D01*
X162513000Y-109205000D02*
X162513000Y-116865000D01*
X150073000Y-122785400D02*
X150073000Y-122281000D01*
X150073400Y-122785000D02*
X150073400Y-122280600D01*
X150073000Y-122785400D02*
X150073400Y-122785000D01*
%TO.N,/Parallel_57*%
X163642000Y-116135000D02*
X163280000Y-116498000D01*
X163642000Y-109707000D02*
X163642000Y-116135000D01*
%TO.N,/Wire_4*%
X156641000Y-58036600D02*
X158042000Y-59437400D01*
X135178000Y-58036600D02*
X156641000Y-58036600D01*
X131739000Y-54597000D02*
X135178000Y-58036600D01*
X116674000Y-100126000D02*
X117552000Y-101003000D01*
X116674000Y-66948600D02*
X116674000Y-100126000D01*
X129026000Y-54597000D02*
X116674000Y-66948600D01*
X131739000Y-54597000D02*
X129026000Y-54597000D01*
%TO.N,/Parallel_23*%
X170644000Y-70376200D02*
X159530000Y-59263100D01*
X170644000Y-115630000D02*
X170644000Y-70376200D01*
X169053000Y-117221000D02*
X170644000Y-115630000D01*
X157787000Y-57520100D02*
X159530000Y-59263100D01*
X135692000Y-57520100D02*
X157787000Y-57520100D01*
X132767000Y-54595000D02*
X135692000Y-57520100D01*
%TO.N,/Wire_8*%
X116224000Y-107093000D02*
X117866000Y-108736000D01*
X116224000Y-66762000D02*
X116224000Y-107093000D01*
X129118000Y-53867800D02*
X116224000Y-66762000D01*
X133260000Y-53867800D02*
X129118000Y-53867800D01*
X133995000Y-54602500D02*
X133260000Y-53867800D01*
X135751000Y-56358700D02*
X133995000Y-54602500D01*
X157956000Y-56358700D02*
X135751000Y-56358700D01*
X160778000Y-59181600D02*
X157956000Y-56358700D01*
%TO.N,/Parallel_64*%
X164710000Y-92985500D02*
X164710000Y-94377800D01*
X163698000Y-91974500D02*
X164710000Y-92985500D01*
X141373000Y-91974500D02*
X163698000Y-91974500D01*
X140749000Y-92599200D02*
X141373000Y-91974500D01*
X135728000Y-55063900D02*
X135268000Y-54603800D01*
X157971000Y-55063900D02*
X135728000Y-55063900D01*
X162086000Y-59178800D02*
X157971000Y-55063900D01*
X134435000Y-124224000D02*
X133483000Y-124224000D01*
X135573000Y-123086000D02*
X134435000Y-124224000D01*
X136472000Y-123086000D02*
X135573000Y-123086000D01*
X136831000Y-123445000D02*
X136472000Y-123086000D01*
X137797000Y-123445000D02*
X136831000Y-123445000D01*
X138116000Y-123127000D02*
X137797000Y-123445000D01*
X139054000Y-123127000D02*
X138116000Y-123127000D01*
X139895000Y-123968000D02*
X139054000Y-123127000D01*
X139895000Y-124584000D02*
X139895000Y-123968000D01*
X140673000Y-125362000D02*
X139895000Y-124584000D01*
X141474000Y-125362000D02*
X140673000Y-125362000D01*
X141938000Y-125826000D02*
X141474000Y-125362000D01*
X158943000Y-125826000D02*
X141938000Y-125826000D01*
X160132000Y-124638000D02*
X158943000Y-125826000D01*
X160132000Y-124005000D02*
X160132000Y-124638000D01*
X161402000Y-122734000D02*
X160132000Y-124005000D01*
X161402000Y-122181000D02*
X161402000Y-122734000D01*
X162427000Y-121156000D02*
X161402000Y-122181000D01*
X163297000Y-121156000D02*
X162427000Y-121156000D01*
X163654000Y-121513000D02*
X163297000Y-121156000D01*
X164570000Y-121513000D02*
X163654000Y-121513000D01*
X165282000Y-120801000D02*
X164570000Y-121513000D01*
X165282000Y-119947000D02*
X165282000Y-120801000D01*
X164232000Y-118898000D02*
X165282000Y-119947000D01*
X164232000Y-116627000D02*
X164232000Y-118898000D01*
X164595000Y-116264000D02*
X164232000Y-116627000D01*
X164595000Y-104130000D02*
X164595000Y-116264000D01*
X164998000Y-103727000D02*
X164595000Y-104130000D01*
X164998000Y-94666400D02*
X164998000Y-103727000D01*
X164710000Y-94377800D02*
X164998000Y-94666400D01*
%TO.N,/Parallel_30*%
X139896000Y-90954400D02*
X139509000Y-91341100D01*
X165437000Y-90954400D02*
X139896000Y-90954400D01*
%TO.N,/Parallel_38*%
X165448000Y-93066300D02*
X166612000Y-93066300D01*
X139312000Y-92597600D02*
X138578000Y-92597600D01*
X140397000Y-91513100D02*
X139312000Y-92597600D01*
X163895000Y-91513100D02*
X140397000Y-91513100D01*
X165448000Y-93066300D02*
X163895000Y-91513100D01*
X136053000Y-126291000D02*
X135573000Y-126771000D01*
X138579000Y-126291000D02*
X136053000Y-126291000D01*
X138883000Y-126596000D02*
X138579000Y-126291000D01*
X141010000Y-126596000D02*
X138883000Y-126596000D01*
X141464000Y-127050000D02*
X141010000Y-126596000D01*
X164015000Y-127050000D02*
X141464000Y-127050000D01*
X166545000Y-124520000D02*
X164015000Y-127050000D01*
X166545000Y-116702000D02*
X166545000Y-124520000D01*
X165045000Y-115202000D02*
X166545000Y-116702000D01*
X165045000Y-108604000D02*
X165045000Y-115202000D01*
X165448000Y-108201000D02*
X165045000Y-108604000D01*
X165448000Y-93066300D02*
X165448000Y-108201000D01*
%TO.N,/Parallel_4*%
X165031000Y-54055000D02*
X165610000Y-54633700D01*
X139477000Y-54055000D02*
X165031000Y-54055000D01*
X155256000Y-88907000D02*
X155176000Y-88826600D01*
X166480000Y-88907000D02*
X155256000Y-88907000D01*
X153774000Y-90229000D02*
X155176000Y-88826600D01*
X138977000Y-90229000D02*
X153774000Y-90229000D01*
X136952000Y-92253300D02*
X138977000Y-90229000D01*
%TO.N,/Parallel_65*%
X130943000Y-124264000D02*
X130944000Y-124265000D01*
X130943000Y-122042000D02*
X130943000Y-124264000D01*
X136018000Y-95697300D02*
X136018000Y-95634500D01*
X140733000Y-113451000D02*
X145638000Y-113451000D01*
X136021000Y-118163000D02*
X140733000Y-113451000D01*
X136021000Y-118828000D02*
X136021000Y-118163000D01*
X134604000Y-120244000D02*
X136021000Y-118828000D01*
X134604000Y-120878000D02*
X134604000Y-120244000D01*
X133936000Y-121546000D02*
X134604000Y-120878000D01*
X133008000Y-121546000D02*
X133936000Y-121546000D01*
X132699000Y-121237000D02*
X133008000Y-121546000D01*
X131749000Y-121237000D02*
X132699000Y-121237000D01*
X130943000Y-122042000D02*
X131749000Y-121237000D01*
X156672000Y-95634500D02*
X163661000Y-102623000D01*
X154375000Y-95634500D02*
X156672000Y-95634500D01*
X136018000Y-95634500D02*
X154375000Y-95634500D01*
X130094000Y-121193000D02*
X130943000Y-122042000D01*
X129212000Y-121193000D02*
X130094000Y-121193000D01*
X128793000Y-121612000D02*
X129212000Y-121193000D01*
X127931000Y-121612000D02*
X128793000Y-121612000D01*
X127558000Y-121239000D02*
X127931000Y-121612000D01*
X126625000Y-121239000D02*
X127558000Y-121239000D01*
X126208000Y-121657000D02*
X126625000Y-121239000D01*
X125418000Y-121657000D02*
X126208000Y-121657000D01*
X125025000Y-121264000D02*
X125418000Y-121657000D01*
X124102000Y-121264000D02*
X125025000Y-121264000D01*
X123751000Y-121615000D02*
X124102000Y-121264000D01*
X122738000Y-121615000D02*
X123751000Y-121615000D01*
X122132000Y-121009000D02*
X122738000Y-121615000D01*
X122132000Y-107220000D02*
X122132000Y-121009000D01*
X123875000Y-105477000D02*
X122132000Y-107220000D01*
X123875000Y-97747000D02*
X123875000Y-105477000D01*
X126413000Y-95209500D02*
X123875000Y-97747000D01*
X135593000Y-95209500D02*
X126413000Y-95209500D01*
X136018000Y-95634500D02*
X135593000Y-95209500D01*
%TO.N,/Parallel_31*%
X162113000Y-92992800D02*
X153410000Y-92992800D01*
X163050000Y-93930400D02*
X162113000Y-92992800D01*
X163050000Y-93930400D02*
X163830000Y-93150200D01*
X164548000Y-103151000D02*
X164167000Y-103532000D01*
X164548000Y-95428000D02*
X164548000Y-103151000D01*
X163050000Y-93930400D02*
X164548000Y-95428000D01*
X153410000Y-92992800D02*
X153410000Y-92728000D01*
X137978000Y-114780000D02*
X139286000Y-113472000D01*
X134374000Y-114780000D02*
X137978000Y-114780000D01*
X130943000Y-118211000D02*
X134374000Y-114780000D01*
X130943000Y-120452000D02*
X130943000Y-118211000D01*
X135675000Y-93329200D02*
X134935000Y-92589500D01*
X153073000Y-93329200D02*
X135675000Y-93329200D01*
X153410000Y-92992800D02*
X153073000Y-93329200D01*
%TO.N,/Parallel_37*%
X142955000Y-88863900D02*
X150056000Y-88863900D01*
X139450000Y-85359400D02*
X142955000Y-88863900D01*
X139168000Y-85359400D02*
X132811000Y-91716900D01*
X139450000Y-85359400D02*
X139168000Y-85359400D01*
X139450000Y-85359400D02*
X139450000Y-80160100D01*
X150586000Y-88863900D02*
X150056000Y-88863900D01*
X153755000Y-85694900D02*
X150586000Y-88863900D01*
X164277000Y-85694900D02*
X153755000Y-85694900D01*
X164294000Y-85694900D02*
X164277000Y-85694900D01*
X167396000Y-88797400D02*
X164294000Y-85694900D01*
X167396000Y-106262000D02*
X167396000Y-88797400D01*
X166438000Y-107221000D02*
X167396000Y-106262000D01*
X123899000Y-126566000D02*
X126944000Y-126566000D01*
X121680000Y-124347000D02*
X123899000Y-126566000D01*
X121680000Y-109201000D02*
X121680000Y-124347000D01*
X120794000Y-108315000D02*
X121680000Y-109201000D01*
X120794000Y-98272800D02*
X120794000Y-108315000D01*
X126202000Y-92864500D02*
X120794000Y-98272800D01*
X131663000Y-92864500D02*
X126202000Y-92864500D01*
X132811000Y-91716900D02*
X131663000Y-92864500D01*
%TO.N,/Parallel_3*%
X126818000Y-98711800D02*
X131642000Y-98711800D01*
X126220000Y-99310200D02*
X126818000Y-98711800D01*
X125563000Y-98652900D02*
X126220000Y-99310200D01*
X163930000Y-71041500D02*
X163673000Y-71041500D01*
X168808000Y-75919800D02*
X163930000Y-71041500D01*
X168808000Y-108118000D02*
X168808000Y-75919800D01*
X167417000Y-109509000D02*
X168808000Y-108118000D01*
X162747000Y-70115400D02*
X163673000Y-71041500D01*
X137466000Y-70115400D02*
X162747000Y-70115400D01*
X136580000Y-71001000D02*
X137466000Y-70115400D01*
X134250000Y-98711800D02*
X131642000Y-98711800D01*
X135744000Y-100206000D02*
X134250000Y-98711800D01*
X148412000Y-100206000D02*
X135744000Y-100206000D01*
X149187000Y-99430600D02*
X148412000Y-100206000D01*
X149253000Y-99430600D02*
X149187000Y-99430600D01*
X149511000Y-99171900D02*
X149253000Y-99430600D01*
X157749000Y-99171900D02*
X149511000Y-99171900D01*
X163721000Y-105144000D02*
X157749000Y-99171900D01*
X129634000Y-118550000D02*
X129634300Y-118549700D01*
X128683000Y-118550000D02*
X129634000Y-118550000D01*
X127525000Y-119708000D02*
X128683000Y-118550000D01*
X126662000Y-119708000D02*
X127525000Y-119708000D01*
X125898000Y-118944000D02*
X126662000Y-119708000D01*
X125898000Y-99632000D02*
X125898000Y-118944000D01*
X126220000Y-99310200D02*
X125898000Y-99632000D01*
X134856000Y-113328000D02*
X137354000Y-113328000D01*
X129634300Y-118549700D02*
X134856000Y-113328000D01*
X129634300Y-118549700D02*
X129634300Y-118550000D01*
%TO.N,/Parallel_7*%
X169722000Y-112158000D02*
X168379000Y-113501000D01*
X169722000Y-73213900D02*
X169722000Y-112158000D01*
X162208000Y-65700800D02*
X169722000Y-73213900D01*
X167912000Y-113968000D02*
X168379000Y-113501000D01*
X167912000Y-125064000D02*
X167912000Y-113968000D01*
X164477000Y-128498000D02*
X167912000Y-125064000D01*
X139510000Y-128498000D02*
X164477000Y-128498000D01*
X138856000Y-127845000D02*
X139510000Y-128498000D01*
X138856000Y-127771000D02*
X138856000Y-127845000D01*
X161284000Y-64776000D02*
X162208000Y-65700800D01*
X136855000Y-64776000D02*
X161284000Y-64776000D01*
X136768000Y-64862800D02*
X136855000Y-64776000D01*
%TO.N,/Parallel_41*%
X162450000Y-72631700D02*
X160860000Y-71041800D01*
X164883000Y-72631700D02*
X162450000Y-72631700D01*
X168308000Y-76056900D02*
X164883000Y-72631700D01*
X168308000Y-107013000D02*
X168308000Y-76056900D01*
X166685000Y-108636000D02*
X168308000Y-107013000D01*
X166685000Y-109580000D02*
X166685000Y-108636000D01*
X166392000Y-109873000D02*
X166685000Y-109580000D01*
X140097000Y-127994000D02*
X139874000Y-127771000D01*
X164344000Y-127994000D02*
X140097000Y-127994000D01*
X167461000Y-124877000D02*
X164344000Y-127994000D01*
X167461000Y-115858000D02*
X167461000Y-124877000D01*
X166347000Y-114744000D02*
X167461000Y-115858000D01*
X166347000Y-109918000D02*
X166347000Y-114744000D01*
X166392000Y-109873000D02*
X166347000Y-109918000D01*
X160384000Y-70565700D02*
X160860000Y-71041800D01*
X138289000Y-70565700D02*
X160384000Y-70565700D01*
X137058000Y-71796400D02*
X138289000Y-70565700D01*
X134815000Y-71796400D02*
X137058000Y-71796400D01*
X134037000Y-71018600D02*
X134815000Y-71796400D01*
%TO.N,/Parallel_27*%
X136949000Y-127046000D02*
X136911000Y-127084000D01*
X140823000Y-127046000D02*
X136949000Y-127046000D01*
X141306000Y-127529000D02*
X140823000Y-127046000D01*
X164172000Y-127529000D02*
X141306000Y-127529000D01*
X166995000Y-124706000D02*
X164172000Y-127529000D01*
X166995000Y-116029000D02*
X166995000Y-124706000D01*
X165643000Y-114677000D02*
X166995000Y-116029000D01*
X165643000Y-109032000D02*
X165643000Y-114677000D01*
X165770000Y-108905000D02*
X165643000Y-109032000D01*
X159419000Y-71016000D02*
X160058000Y-71655200D01*
X138865000Y-71016000D02*
X159419000Y-71016000D01*
X138270000Y-71610900D02*
X138865000Y-71016000D01*
X165780000Y-108905000D02*
X165770000Y-108905000D01*
X167847000Y-106838000D02*
X165780000Y-108905000D01*
X167847000Y-76232200D02*
X167847000Y-106838000D01*
X165826000Y-74211300D02*
X167847000Y-76232200D01*
X163251000Y-74211300D02*
X165826000Y-74211300D01*
X161754000Y-72713600D02*
X163251000Y-74211300D01*
X161117000Y-72713600D02*
X161754000Y-72713600D01*
X160058000Y-71655200D02*
X161117000Y-72713600D01*
%TO.N,/Parallel_61*%
X156062000Y-104388000D02*
X157730000Y-104388000D01*
X154917000Y-105533000D02*
X156062000Y-104388000D01*
X157671000Y-65269100D02*
X158370000Y-65968500D01*
X146896000Y-65269100D02*
X157671000Y-65269100D01*
X146507000Y-65657800D02*
X146896000Y-65269100D01*
X154917000Y-106963000D02*
X154917000Y-105533000D01*
X143530000Y-118350000D02*
X154917000Y-106963000D01*
X143530000Y-118975000D02*
X143530000Y-118350000D01*
X142489000Y-120016000D02*
X143530000Y-118975000D01*
X142489000Y-120654000D02*
X142489000Y-120016000D01*
X141144000Y-122000000D02*
X142489000Y-120654000D01*
X141144000Y-124224000D02*
X141144000Y-122000000D01*
X154208000Y-104823000D02*
X149241000Y-104823000D01*
X154917000Y-105533000D02*
X154208000Y-104823000D01*
X147408000Y-106657000D02*
X149241000Y-104823000D01*
X138450000Y-106657000D02*
X147408000Y-106657000D01*
X138334000Y-106773000D02*
X138450000Y-106657000D01*
X129418000Y-106773000D02*
X138334000Y-106773000D01*
X129047000Y-107144000D02*
X129418000Y-106773000D01*
X133066000Y-65657800D02*
X146507000Y-65657800D01*
X132921000Y-65512600D02*
X133066000Y-65657800D01*
%TO.N,/Parallel_10*%
X132503000Y-68764500D02*
X130225000Y-71042500D01*
X154538000Y-68764500D02*
X132503000Y-68764500D01*
X156770000Y-66533200D02*
X154538000Y-68764500D01*
X156770000Y-66501300D02*
X156770000Y-66533200D01*
X159604000Y-113328000D02*
X159784000Y-113508000D01*
X155604000Y-113328000D02*
X159604000Y-113328000D01*
X154581000Y-114351000D02*
X155604000Y-113328000D01*
X145439000Y-104705000D02*
X132651000Y-104705000D01*
X145650000Y-104493000D02*
X145439000Y-104705000D01*
%TO.N,/Parallel_44*%
X130188000Y-101266000D02*
X130092000Y-101170000D01*
X131760000Y-101266000D02*
X130188000Y-101266000D01*
X153961000Y-68314200D02*
X155769000Y-66505900D01*
X131632000Y-68314200D02*
X153961000Y-68314200D01*
X128913000Y-71033600D02*
X131632000Y-68314200D01*
D19*
X147558000Y-122546000D02*
X147578000Y-122566000D01*
D17*
X157794000Y-107792000D02*
X157688000Y-107898000D01*
X157941000Y-107792000D02*
X157794000Y-107792000D01*
X159381000Y-106352000D02*
X157941000Y-107792000D01*
X159381000Y-105865000D02*
X159381000Y-106352000D01*
X158600000Y-105084000D02*
X159381000Y-105865000D01*
X158474000Y-105084000D02*
X158600000Y-105084000D01*
X132512000Y-102017000D02*
X131760000Y-101266000D01*
X149149000Y-102017000D02*
X132512000Y-102017000D01*
X149360000Y-101806000D02*
X149149000Y-102017000D01*
X149960000Y-101806000D02*
X149360000Y-101806000D01*
X151754000Y-103600000D02*
X149960000Y-101806000D01*
X158045000Y-103600000D02*
X151754000Y-103600000D01*
X158474000Y-104029000D02*
X158045000Y-103600000D01*
X158474000Y-105084000D02*
X158474000Y-104029000D01*
X158064000Y-105084000D02*
X158474000Y-105084000D01*
X146239000Y-116909000D02*
X158064000Y-105084000D01*
X146239000Y-118833000D02*
X146239000Y-116909000D01*
X145143000Y-119929000D02*
X146239000Y-118833000D01*
X145143000Y-120900000D02*
X145143000Y-119929000D01*
X146560000Y-122318000D02*
X145143000Y-120900000D01*
X147530000Y-122318000D02*
X146560000Y-122318000D01*
X147578000Y-122566000D02*
X147558000Y-122546000D01*
X147530000Y-122518000D02*
X147530000Y-122318000D01*
X147558000Y-122546000D02*
X147530000Y-122518000D01*
%TO.N,/Parallel_24*%
X148912000Y-66487700D02*
X128218000Y-66487700D01*
X148915000Y-66484800D02*
X148912000Y-66487700D01*
X157721000Y-115356000D02*
X155306000Y-115356000D01*
X158969000Y-114108000D02*
X157721000Y-115356000D01*
%TO.N,/Parallel_58*%
X167072000Y-112162000D02*
X167072000Y-114263000D01*
X169271000Y-109963000D02*
X167072000Y-112162000D01*
X169271000Y-75611200D02*
X169271000Y-109963000D01*
X162497000Y-68837500D02*
X169271000Y-75611200D01*
X160213000Y-68837500D02*
X162497000Y-68837500D01*
X157150000Y-65774500D02*
X160213000Y-68837500D01*
X153330000Y-65774500D02*
X157150000Y-65774500D01*
X152579000Y-66526100D02*
X153330000Y-65774500D01*
X151241000Y-67863900D02*
X152579000Y-66526100D01*
X129780000Y-67863900D02*
X151241000Y-67863900D01*
X126612000Y-71032000D02*
X129780000Y-67863900D01*
%TO.N,/Parallel_12*%
X151202000Y-72466700D02*
X151927000Y-71741400D01*
X148181000Y-72466700D02*
X151202000Y-72466700D01*
X147839000Y-72808100D02*
X148181000Y-72466700D01*
X126492000Y-72808100D02*
X147839000Y-72808100D01*
X125087000Y-71402400D02*
X126492000Y-72808100D01*
X156407000Y-101869000D02*
X156407000Y-101294000D01*
X157688000Y-103150000D02*
X156407000Y-101869000D01*
X158258000Y-103150000D02*
X157688000Y-103150000D01*
X159844000Y-104735000D02*
X158258000Y-103150000D01*
X159844000Y-106716000D02*
X159844000Y-104735000D01*
X159059000Y-107500000D02*
X159844000Y-106716000D01*
X159059000Y-107553000D02*
X159059000Y-107500000D01*
X155497000Y-111114000D02*
X159059000Y-107553000D01*
X154967000Y-111114000D02*
X155497000Y-111114000D01*
X152191000Y-113891000D02*
X154967000Y-111114000D01*
X152191000Y-118048000D02*
X152191000Y-113891000D01*
X152614000Y-118471000D02*
X152191000Y-118048000D01*
%TO.N,/Parallel_22*%
X125761000Y-67228600D02*
X124985000Y-66451900D01*
X149851000Y-67228600D02*
X125761000Y-67228600D01*
X150654000Y-66425700D02*
X149851000Y-67228600D01*
X153921000Y-117873000D02*
X153921000Y-120416000D01*
X152670000Y-116622000D02*
X153921000Y-117873000D01*
X152670000Y-114048000D02*
X152670000Y-116622000D01*
X154710000Y-112009000D02*
X152670000Y-114048000D01*
X155240000Y-112009000D02*
X154710000Y-112009000D01*
X159509000Y-107739000D02*
X155240000Y-112009000D01*
X159509000Y-107687000D02*
X159509000Y-107739000D01*
X160343000Y-106854000D02*
X159509000Y-107687000D01*
X160343000Y-104575000D02*
X160343000Y-106854000D01*
X157936000Y-102169000D02*
X160343000Y-104575000D01*
X157764000Y-102169000D02*
X157936000Y-102169000D01*
%TO.N,/Parallel_13*%
X155172000Y-112734000D02*
X155010000Y-112734000D01*
X159960000Y-107947000D02*
X155172000Y-112734000D01*
X159960000Y-107874000D02*
X159960000Y-107947000D01*
X160842000Y-106991000D02*
X159960000Y-107874000D01*
X160842000Y-104219000D02*
X160842000Y-106991000D01*
X157155000Y-100532000D02*
X160842000Y-104219000D01*
X156098000Y-100532000D02*
X157155000Y-100532000D01*
X155535000Y-101094000D02*
X156098000Y-100532000D01*
X155535000Y-101660000D02*
X155535000Y-101094000D01*
X154528000Y-102668000D02*
X155535000Y-101660000D01*
X151882000Y-102668000D02*
X154528000Y-102668000D01*
X150969000Y-101754000D02*
X151882000Y-102668000D01*
X139165000Y-71741400D02*
X150359000Y-71741400D01*
X138549000Y-72357800D02*
X139165000Y-71741400D01*
X127208000Y-72357800D02*
X138549000Y-72357800D01*
X126905000Y-72054700D02*
X127208000Y-72357800D01*
X153130000Y-116445000D02*
X155193000Y-118508000D01*
X153130000Y-114614000D02*
X153130000Y-116445000D01*
X155010000Y-112734000D02*
X153130000Y-114614000D01*
X155193100Y-118508000D02*
X155193000Y-118508000D01*
D18*
%TO.N,/GND*%
X148471000Y-78163000D02*
X151241000Y-78163000D01*
X140161000Y-78163000D02*
X142931000Y-78163000D01*
X142931000Y-78163000D02*
X145701000Y-78163000D01*
X154011000Y-78163000D02*
X156781000Y-78163000D01*
X145701000Y-78163000D02*
X148471000Y-78163000D01*
X120385000Y-81233200D02*
X120549000Y-81397000D01*
X120385000Y-76815200D02*
X120385000Y-81233200D01*
X119243000Y-75673000D02*
X120385000Y-76815200D01*
X164573000Y-78163000D02*
X159551000Y-78163000D01*
X166025000Y-76710400D02*
X164573000Y-78163000D01*
X119243000Y-75673000D02*
X118366000Y-75673000D01*
X151241000Y-78163000D02*
X154011000Y-78163000D01*
X124579000Y-125600000D02*
X123283000Y-124305000D01*
X138737000Y-125600000D02*
X124579000Y-125600000D01*
X139099000Y-125962000D02*
X138737000Y-125600000D01*
X141225000Y-125962000D02*
X139099000Y-125962000D01*
X141706000Y-126443000D02*
X141225000Y-125962000D01*
X163696000Y-126443000D02*
X141706000Y-126443000D01*
X165461000Y-124678000D02*
X163696000Y-126443000D01*
X165461000Y-122349000D02*
X165461000Y-124678000D01*
X165393000Y-122281000D02*
X165461000Y-122349000D01*
X120868000Y-74047600D02*
X120549000Y-74367000D01*
X136623000Y-74047600D02*
X120868000Y-74047600D01*
X137391000Y-74816000D02*
X136623000Y-74047600D01*
X137391000Y-75803900D02*
X137391000Y-74816000D01*
X139750000Y-78163000D02*
X137391000Y-75803900D01*
X140161000Y-78163000D02*
X139750000Y-78163000D01*
X120549000Y-74367000D02*
X119243000Y-75673000D01*
X123284300Y-120494600D02*
X123284000Y-120494600D01*
X123284000Y-109581000D02*
X123284000Y-120494600D01*
X124318000Y-108547000D02*
X123284000Y-109581000D01*
X123284000Y-120494600D02*
X123284000Y-120495000D01*
X165393000Y-122280800D02*
X165393000Y-122281000D01*
X165392800Y-122280600D02*
X165393000Y-122280800D01*
X123283000Y-124304600D02*
X123283000Y-124305000D01*
X120549000Y-81397000D02*
X123582500Y-84430300D01*
X120912200Y-84430300D02*
X120750900Y-84591600D01*
X123582500Y-84430300D02*
X120912200Y-84430300D01*
X129014000Y-89861500D02*
X129014000Y-89972600D01*
X123582500Y-84430300D02*
X129014000Y-89861500D01*
%TD*%
M02*
