M48
; DRILL file {KiCad (6.0.2)} date Fri May 20 20:38:19 2022
; FORMAT={-:-/ absolute / metric / decimal}
; #@! TF.CreationDate,2022-05-20T20:38:19-05:00
; #@! TF.GenerationSoftware,Kicad,Pcbnew,(6.0.2)
; #@! TF.FileFunction,Plated,1,2,PTH
FMAT,2
METRIC
; #@! TA.AperFunction,Plated,PTH,ViaDrill
T1C0.400
; #@! TA.AperFunction,Plated,PTH,ComponentDrill
T2C1.000
; #@! TA.AperFunction,Plated,PTH,ComponentDrill
T3C1.030
; #@! TA.AperFunction,Plated,PTH,ComponentDrill
T4C1.270
; #@! TA.AperFunction,Plated,PTH,ComponentDrill
T5C3.170
; #@! TA.AperFunction,Plated,PTH,ViaDrill
T6C3.400
%
G90
G05
T1
X117.552Y-101.003
X117.864Y-104.346
X117.866Y-108.736
X118.245Y-99.087
X120.453Y-110.762
X120.751Y-84.592
X121.26Y-77.763
X121.994Y-102.76
X122.87Y-102.179
X123.15Y-105.177
X124.318Y-108.547
X124.822Y-59.851
X124.929Y-97.866
X124.985Y-66.452
X125.087Y-71.402
X125.444Y-60.644
X125.563Y-98.653
X125.627Y-97.069
X126.341Y-59.138
X126.612Y-71.032
X126.905Y-72.055
X126.944Y-126.566
X127.108Y-113.536
X127.628Y-95.935
X128.218Y-66.488
X128.575Y-97.126
X128.904Y-106.048
X128.913Y-71.034
X129.014Y-89.973
X129.043Y-109.855
X129.047Y-107.144
X129.052Y-105.011
X129.061Y-103.549
X129.426Y-97.69
X129.441Y-59.302
X130.092Y-101.17
X130.225Y-71.042
X131.115Y-60.054
X131.642Y-98.712
X131.739Y-54.597
X131.76Y-101.266
X132.13Y-87.915
X132.651Y-104.705
X132.767Y-54.595
X132.811Y-91.717
X132.921Y-65.513
X133.995Y-54.602
X134.037Y-71.019
X134.31Y-87.069
X134.935Y-92.59
X135.268Y-54.604
X135.573Y-126.771
X136.018Y-95.697
X136.045Y-99.481
X136.58Y-71.001
X136.768Y-64.863
X136.911Y-127.084
X136.952Y-92.253
X137.045Y-99.481
X137.354Y-113.328
X137.995Y-107.623
X138.033Y-106.048
X138.081Y-103.261
X138.27Y-71.611
X138.578Y-86.983
X138.578Y-92.598
X138.856Y-127.771
X139.286Y-113.472
X139.45Y-80.16
X139.477Y-54.055
X139.509Y-91.341
X139.874Y-127.771
X140.559Y-108.287
X140.657Y-109.85
X140.749Y-92.599
X141.881Y-103.969
X142.958Y-97.013
X145.496Y-105.866
X145.638Y-113.451
X145.65Y-104.493
X145.671Y-108.263
X146.507Y-65.658
X147.073Y-99.233
X147.744Y-88.12
X148.468Y-73.252
X148.915Y-66.485
X149.241Y-104.823
X149.253Y-99.431
X149.384Y-61.502
X149.66Y-102.531
X150.056Y-88.864
X150.359Y-71.741
X150.654Y-66.426
X150.94Y-113.876
X150.969Y-101.754
X151.239Y-86.944
X151.927Y-71.741
X152.579Y-66.526
X152.947Y-106.484
X153.159Y-59.597
X153.41Y-92.728
X153.856Y-115.231
X154.187Y-101.942
X154.19Y-105.9
X154.375Y-95.635
X154.581Y-114.351
X154.589Y-59.427
X155.01Y-112.734
X155.176Y-88.827
X155.306Y-115.356
X155.699Y-59.343
X155.769Y-66.506
X156.407Y-101.294
X156.456Y-83.014
X156.77Y-66.501
X157.569Y-86.438
X157.688Y-107.898
X157.73Y-104.388
X157.764Y-102.169
X158.042Y-59.437
X158.37Y-65.968
X158.598Y-106.108
X158.969Y-114.108
X159.223Y-82.709
X159.32Y-109.638
X159.53Y-59.263
X159.784Y-113.508
X160.007Y-115.195
X160.058Y-71.655
X160.685Y-108.174
X160.778Y-59.182
X160.86Y-71.042
X161.135Y-116.118
X162.086Y-59.179
X162.208Y-65.701
X162.513Y-109.205
X163.28Y-116.498
X163.642Y-109.707
X163.661Y-102.623
X163.673Y-71.041
X163.721Y-105.144
X163.822Y-96.06
X163.83Y-93.15
X164.167Y-103.532
X164.277Y-85.695
X164.71Y-94.378
X165.437Y-90.954
X165.61Y-54.634
X165.77Y-108.905
X166.025Y-76.71
X166.392Y-109.873
X166.438Y-107.221
X166.48Y-88.907
X166.612Y-93.066
X167.072Y-114.263
X167.417Y-109.509
X168.379Y-113.501
X168.655Y-114.719
X169.053Y-117.221
T2
X127.696Y-75.323
X129.081Y-78.163
X130.466Y-75.323
X131.851Y-78.163
X133.236Y-75.323
X134.621Y-78.163
X136.006Y-75.323
X137.391Y-78.163
X138.776Y-75.323
X140.161Y-78.163
X141.546Y-75.323
X142.931Y-78.163
X144.316Y-75.323
X145.701Y-78.163
X147.086Y-75.323
X148.471Y-78.163
X149.856Y-75.323
X151.241Y-78.163
X152.626Y-75.323
X154.011Y-78.163
X155.396Y-75.323
X156.781Y-78.163
X158.166Y-75.323
X159.551Y-78.163
X160.936Y-75.323
T3
X123.283Y-124.305
X123.284Y-120.495
X124.554Y-122.4
X124.555Y-118.591
X125.821Y-120.454
X125.824Y-124.263
X127.091Y-118.55
X127.094Y-122.36
X128.361Y-124.264
X128.362Y-120.455
X129.633Y-122.36
X129.634Y-118.55
X130.943Y-120.452
X130.944Y-124.265
X132.213Y-118.549
X132.215Y-122.361
X133.483Y-124.224
X133.484Y-120.414
X134.751Y-118.51
X134.754Y-122.317
X136.021Y-120.415
X136.022Y-124.224
X137.291Y-118.51
X137.294Y-122.32
X138.603Y-120.454
X138.605Y-124.265
X139.874Y-118.55
X139.874Y-122.36
X141.144Y-120.411
X141.144Y-124.224
X142.41Y-118.511
X142.412Y-122.32
X143.683Y-124.222
X143.684Y-120.415
X144.953Y-118.512
X144.954Y-122.318
X146.263Y-120.415
X146.264Y-124.223
X147.53Y-118.507
X147.53Y-122.318
X148.803Y-124.186
X148.805Y-120.376
X150.07Y-118.47
X150.073Y-122.281
X151.341Y-120.375
X151.342Y-124.185
X152.613Y-122.278
X152.614Y-118.471
X153.921Y-120.416
X153.924Y-124.224
X155.193Y-118.508
X155.194Y-122.318
X156.463Y-120.376
X156.463Y-124.186
X157.73Y-122.281
X157.732Y-118.47
X159.002Y-124.183
X159.003Y-120.376
X160.271Y-122.281
X160.272Y-118.469
X161.58Y-124.226
X161.582Y-120.415
X162.851Y-118.511
X162.852Y-122.317
X164.123Y-120.376
X164.123Y-124.186
X165.393Y-118.471
X165.393Y-122.281
T4
X118.366Y-75.673
X118.406Y-80.124
X120.549Y-74.367
X120.549Y-81.397
T5
X118.197Y-121.483
X170.552Y-121.485
T6
X121.785Y-132.44
X166.831Y-132.439
T0
M30
