%TF.GenerationSoftware,KiCad,Pcbnew,(6.0.2)*%
%TF.CreationDate,2022-05-20T20:38:17-05:00*%
%TF.ProjectId,REF1326_Optimized,52454631-3332-4365-9f4f-7074696d697a,rev?*%
%TF.SameCoordinates,Original*%
%TF.FileFunction,Legend,Top*%
%TF.FilePolarity,Positive*%
%FSLAX46Y46*%
G04 Gerber Fmt 4.6, Leading zero omitted, Abs format (unit mm)*
G04 Created by KiCad (PCBNEW (6.0.2)) date 2022-05-20 20:38:17*
%MOMM*%
%LPD*%
G01*
G04 APERTURE LIST*
%ADD10C,0.150000*%
%ADD11C,0.125000*%
G04 APERTURE END LIST*
D10*
X126238000Y-128752600D02*
X129692400Y-128752600D01*
X129692400Y-128752600D02*
X129692400Y-134772400D01*
X129692400Y-134772400D02*
X126238000Y-134772400D01*
X126238000Y-134772400D02*
X126238000Y-128752600D01*
X116484400Y-86360000D02*
X120167400Y-86360000D01*
X120167400Y-86360000D02*
X120167400Y-91668600D01*
X120167400Y-91668600D02*
X116484400Y-91668600D01*
X116484400Y-91668600D02*
X116484400Y-86360000D01*
X150012400Y-103708200D02*
X153212800Y-103708200D01*
X153212800Y-103708200D02*
X153212800Y-109423200D01*
X153212800Y-109423200D02*
X150012400Y-109423200D01*
X150012400Y-109423200D02*
X150012400Y-103708200D01*
X116484400Y-92227400D02*
X120116600Y-92227400D01*
X120116600Y-92227400D02*
X120116600Y-97739200D01*
X120116600Y-97739200D02*
X116484400Y-97739200D01*
X116484400Y-97739200D02*
X116484400Y-92227400D01*
X140995400Y-58953400D02*
X144881600Y-58953400D01*
X144881600Y-58953400D02*
X144881600Y-64490600D01*
X144881600Y-64490600D02*
X140995400Y-64490600D01*
X140995400Y-64490600D02*
X140995400Y-58953400D01*
X116687600Y-72872600D02*
X122656600Y-72872600D01*
X122656600Y-72872600D02*
X122656600Y-82753200D01*
X122656600Y-82753200D02*
X116687600Y-82753200D01*
X116687600Y-82753200D02*
X116687600Y-72872600D01*
X125501400Y-86360000D02*
X128930400Y-86360000D01*
X128930400Y-86360000D02*
X128930400Y-92379800D01*
X128930400Y-92379800D02*
X125501400Y-92379800D01*
X125501400Y-92379800D02*
X125501400Y-86360000D01*
D11*
X146294457Y-91873290D02*
X146008742Y-91873290D01*
X146151600Y-91873290D02*
X146151600Y-91373290D01*
X146103980Y-91444719D01*
X146056361Y-91492338D01*
X146008742Y-91516147D01*
X146151600Y-92844957D02*
X146151600Y-92130671D01*
X132692876Y-132356990D02*
X132454780Y-132356990D01*
X132454780Y-131856990D01*
X132859542Y-132356990D02*
X132859542Y-131856990D01*
X133026209Y-132214133D01*
X133192876Y-131856990D01*
X133192876Y-132356990D01*
X133383352Y-131856990D02*
X133716685Y-131856990D01*
X133502400Y-132356990D01*
X133978590Y-132071276D02*
X133930971Y-132047466D01*
X133907161Y-132023657D01*
X133883352Y-131976038D01*
X133883352Y-131952228D01*
X133907161Y-131904609D01*
X133930971Y-131880800D01*
X133978590Y-131856990D01*
X134073828Y-131856990D01*
X134121447Y-131880800D01*
X134145257Y-131904609D01*
X134169066Y-131952228D01*
X134169066Y-131976038D01*
X134145257Y-132023657D01*
X134121447Y-132047466D01*
X134073828Y-132071276D01*
X133978590Y-132071276D01*
X133930971Y-132095085D01*
X133907161Y-132118895D01*
X133883352Y-132166514D01*
X133883352Y-132261752D01*
X133907161Y-132309371D01*
X133930971Y-132333180D01*
X133978590Y-132356990D01*
X134073828Y-132356990D01*
X134121447Y-132333180D01*
X134145257Y-132309371D01*
X134169066Y-132261752D01*
X134169066Y-132166514D01*
X134145257Y-132118895D01*
X134121447Y-132095085D01*
X134073828Y-132071276D01*
X134621447Y-132356990D02*
X134383352Y-132356990D01*
X134383352Y-131856990D01*
X126260990Y-90514323D02*
X126260990Y-90800038D01*
X126260990Y-90657180D02*
X125760990Y-90657180D01*
X125832419Y-90704800D01*
X125880038Y-90752419D01*
X125903847Y-90800038D01*
X125760990Y-90204800D02*
X125760990Y-90157180D01*
X125784800Y-90109561D01*
X125808609Y-90085752D01*
X125856228Y-90061942D01*
X125951466Y-90038133D01*
X126070514Y-90038133D01*
X126165752Y-90061942D01*
X126213371Y-90085752D01*
X126237180Y-90109561D01*
X126260990Y-90157180D01*
X126260990Y-90204800D01*
X126237180Y-90252419D01*
X126213371Y-90276228D01*
X126165752Y-90300038D01*
X126070514Y-90323847D01*
X125951466Y-90323847D01*
X125856228Y-90300038D01*
X125808609Y-90276228D01*
X125784800Y-90252419D01*
X125760990Y-90204800D01*
X126260990Y-89823847D02*
X125760990Y-89823847D01*
X126070514Y-89776228D02*
X126260990Y-89633371D01*
X125927657Y-89633371D02*
X126118133Y-89823847D01*
X125760990Y-88942895D02*
X125760990Y-88847657D01*
X125784800Y-88800038D01*
X125832419Y-88752419D01*
X125927657Y-88728609D01*
X126094323Y-88728609D01*
X126189561Y-88752419D01*
X126237180Y-88800038D01*
X126260990Y-88847657D01*
X126260990Y-88942895D01*
X126237180Y-88990514D01*
X126189561Y-89038133D01*
X126094323Y-89061942D01*
X125927657Y-89061942D01*
X125832419Y-89038133D01*
X125784800Y-88990514D01*
X125760990Y-88942895D01*
X126260990Y-88514323D02*
X125760990Y-88514323D01*
X126260990Y-88300038D02*
X125999085Y-88300038D01*
X125951466Y-88323847D01*
X125927657Y-88371466D01*
X125927657Y-88442895D01*
X125951466Y-88490514D01*
X125975276Y-88514323D01*
X126260990Y-88061942D02*
X125927657Y-88061942D01*
X125975276Y-88061942D02*
X125951466Y-88038133D01*
X125927657Y-87990514D01*
X125927657Y-87919085D01*
X125951466Y-87871466D01*
X125999085Y-87847657D01*
X126260990Y-87847657D01*
X125999085Y-87847657D02*
X125951466Y-87823847D01*
X125927657Y-87776228D01*
X125927657Y-87704800D01*
X125951466Y-87657180D01*
X125999085Y-87633371D01*
X126260990Y-87633371D01*
X150797390Y-107441085D02*
X150797390Y-107726800D01*
X150797390Y-107583942D02*
X150297390Y-107583942D01*
X150368819Y-107631561D01*
X150416438Y-107679180D01*
X150440247Y-107726800D01*
X150297390Y-107131561D02*
X150297390Y-107083942D01*
X150321200Y-107036323D01*
X150345009Y-107012514D01*
X150392628Y-106988704D01*
X150487866Y-106964895D01*
X150606914Y-106964895D01*
X150702152Y-106988704D01*
X150749771Y-107012514D01*
X150773580Y-107036323D01*
X150797390Y-107083942D01*
X150797390Y-107131561D01*
X150773580Y-107179180D01*
X150749771Y-107202990D01*
X150702152Y-107226800D01*
X150606914Y-107250609D01*
X150487866Y-107250609D01*
X150392628Y-107226800D01*
X150345009Y-107202990D01*
X150321200Y-107179180D01*
X150297390Y-107131561D01*
X150297390Y-106655371D02*
X150297390Y-106607752D01*
X150321200Y-106560133D01*
X150345009Y-106536323D01*
X150392628Y-106512514D01*
X150487866Y-106488704D01*
X150606914Y-106488704D01*
X150702152Y-106512514D01*
X150749771Y-106536323D01*
X150773580Y-106560133D01*
X150797390Y-106607752D01*
X150797390Y-106655371D01*
X150773580Y-106702990D01*
X150749771Y-106726800D01*
X150702152Y-106750609D01*
X150606914Y-106774419D01*
X150487866Y-106774419D01*
X150392628Y-106750609D01*
X150345009Y-106726800D01*
X150321200Y-106702990D01*
X150297390Y-106655371D01*
X150464057Y-105893466D02*
X150797390Y-105893466D01*
X150511676Y-105893466D02*
X150487866Y-105869657D01*
X150464057Y-105822038D01*
X150464057Y-105750609D01*
X150487866Y-105702990D01*
X150535485Y-105679180D01*
X150797390Y-105679180D01*
X150535485Y-105274419D02*
X150535485Y-105441085D01*
X150797390Y-105441085D02*
X150297390Y-105441085D01*
X150297390Y-105202990D01*
X118652314Y-77573090D02*
X118366600Y-77573090D01*
X118509457Y-77573090D02*
X118509457Y-77073090D01*
X118461838Y-77144519D01*
X118414219Y-77192138D01*
X118366600Y-77215947D01*
X119461838Y-77549280D02*
X119414219Y-77573090D01*
X119318980Y-77573090D01*
X119271361Y-77549280D01*
X119247552Y-77525471D01*
X119223742Y-77477852D01*
X119223742Y-77334995D01*
X119247552Y-77287376D01*
X119271361Y-77263566D01*
X119318980Y-77239757D01*
X119414219Y-77239757D01*
X119461838Y-77263566D01*
X119676123Y-77573090D02*
X119676123Y-77239757D01*
X119676123Y-77287376D02*
X119699933Y-77263566D01*
X119747552Y-77239757D01*
X119818980Y-77239757D01*
X119866600Y-77263566D01*
X119890409Y-77311185D01*
X119890409Y-77573090D01*
X119890409Y-77311185D02*
X119914219Y-77263566D01*
X119961838Y-77239757D01*
X120033266Y-77239757D01*
X120080885Y-77263566D01*
X120104695Y-77311185D01*
X120104695Y-77573090D01*
X120652314Y-77073090D02*
X120938028Y-77073090D01*
X120795171Y-77573090D02*
X120795171Y-77073090D01*
X121318980Y-77573090D02*
X121318980Y-77311185D01*
X121295171Y-77263566D01*
X121247552Y-77239757D01*
X121152314Y-77239757D01*
X121104695Y-77263566D01*
X121318980Y-77549280D02*
X121271361Y-77573090D01*
X121152314Y-77573090D01*
X121104695Y-77549280D01*
X121080885Y-77501661D01*
X121080885Y-77454042D01*
X121104695Y-77406423D01*
X121152314Y-77382614D01*
X121271361Y-77382614D01*
X121318980Y-77358804D01*
X121628504Y-77573090D02*
X121580885Y-77549280D01*
X121557076Y-77501661D01*
X121557076Y-77073090D01*
X121890409Y-77573090D02*
X121842790Y-77549280D01*
X121818980Y-77501661D01*
X121818980Y-77073090D01*
X117926123Y-78378090D02*
X117926123Y-77878090D01*
X118116600Y-77878090D01*
X118164219Y-77901900D01*
X118188028Y-77925709D01*
X118211838Y-77973328D01*
X118211838Y-78044757D01*
X118188028Y-78092376D01*
X118164219Y-78116185D01*
X118116600Y-78139995D01*
X117926123Y-78139995D01*
X118640409Y-78044757D02*
X118640409Y-78378090D01*
X118426123Y-78044757D02*
X118426123Y-78306661D01*
X118449933Y-78354280D01*
X118497552Y-78378090D01*
X118568980Y-78378090D01*
X118616600Y-78354280D01*
X118640409Y-78330471D01*
X118854695Y-78354280D02*
X118902314Y-78378090D01*
X118997552Y-78378090D01*
X119045171Y-78354280D01*
X119068980Y-78306661D01*
X119068980Y-78282852D01*
X119045171Y-78235233D01*
X118997552Y-78211423D01*
X118926123Y-78211423D01*
X118878504Y-78187614D01*
X118854695Y-78139995D01*
X118854695Y-78116185D01*
X118878504Y-78068566D01*
X118926123Y-78044757D01*
X118997552Y-78044757D01*
X119045171Y-78068566D01*
X119283266Y-78378090D02*
X119283266Y-77878090D01*
X119497552Y-78378090D02*
X119497552Y-78116185D01*
X119473742Y-78068566D01*
X119426123Y-78044757D01*
X119354695Y-78044757D01*
X119307076Y-78068566D01*
X119283266Y-78092376D01*
X120283266Y-78116185D02*
X120354695Y-78139995D01*
X120378504Y-78163804D01*
X120402314Y-78211423D01*
X120402314Y-78282852D01*
X120378504Y-78330471D01*
X120354695Y-78354280D01*
X120307076Y-78378090D01*
X120116600Y-78378090D01*
X120116600Y-77878090D01*
X120283266Y-77878090D01*
X120330885Y-77901900D01*
X120354695Y-77925709D01*
X120378504Y-77973328D01*
X120378504Y-78020947D01*
X120354695Y-78068566D01*
X120330885Y-78092376D01*
X120283266Y-78116185D01*
X120116600Y-78116185D01*
X120830885Y-78044757D02*
X120830885Y-78378090D01*
X120616600Y-78044757D02*
X120616600Y-78306661D01*
X120640409Y-78354280D01*
X120688028Y-78378090D01*
X120759457Y-78378090D01*
X120807076Y-78354280D01*
X120830885Y-78330471D01*
X120997552Y-78044757D02*
X121188028Y-78044757D01*
X121068980Y-77878090D02*
X121068980Y-78306661D01*
X121092790Y-78354280D01*
X121140409Y-78378090D01*
X121188028Y-78378090D01*
X121283266Y-78044757D02*
X121473742Y-78044757D01*
X121354695Y-77878090D02*
X121354695Y-78306661D01*
X121378504Y-78354280D01*
X121426123Y-78378090D01*
X121473742Y-78378090D01*
X121711838Y-78378090D02*
X121664219Y-78354280D01*
X121640409Y-78330471D01*
X121616600Y-78282852D01*
X121616600Y-78139995D01*
X121640409Y-78092376D01*
X121664219Y-78068566D01*
X121711838Y-78044757D01*
X121783266Y-78044757D01*
X121830885Y-78068566D01*
X121854695Y-78092376D01*
X121878504Y-78139995D01*
X121878504Y-78282852D01*
X121854695Y-78330471D01*
X121830885Y-78354280D01*
X121783266Y-78378090D01*
X121711838Y-78378090D01*
X122092790Y-78044757D02*
X122092790Y-78378090D01*
X122092790Y-78092376D02*
X122116600Y-78068566D01*
X122164219Y-78044757D01*
X122235647Y-78044757D01*
X122283266Y-78068566D01*
X122307076Y-78116185D01*
X122307076Y-78378090D01*
X157686428Y-106080714D02*
X158067380Y-106080714D01*
X158567380Y-106271190D02*
X158281666Y-106271190D01*
X158424523Y-106271190D02*
X158424523Y-105771190D01*
X158376904Y-105842619D01*
X158329285Y-105890238D01*
X158281666Y-105914047D01*
D10*
X134183714Y-89453980D02*
X134183714Y-88453980D01*
X134183714Y-88930171D02*
X134755142Y-88930171D01*
X134755142Y-89453980D02*
X134755142Y-88453980D01*
X135802761Y-89358742D02*
X135755142Y-89406361D01*
X135612285Y-89453980D01*
X135517047Y-89453980D01*
X135374190Y-89406361D01*
X135278952Y-89311123D01*
X135231333Y-89215885D01*
X135183714Y-89025409D01*
X135183714Y-88882552D01*
X135231333Y-88692076D01*
X135278952Y-88596838D01*
X135374190Y-88501600D01*
X135517047Y-88453980D01*
X135612285Y-88453980D01*
X135755142Y-88501600D01*
X135802761Y-88549219D01*
X136183714Y-88549219D02*
X136231333Y-88501600D01*
X136326571Y-88453980D01*
X136564666Y-88453980D01*
X136659904Y-88501600D01*
X136707523Y-88549219D01*
X136755142Y-88644457D01*
X136755142Y-88739695D01*
X136707523Y-88882552D01*
X136136095Y-89453980D01*
X136755142Y-89453980D01*
X137612285Y-88787314D02*
X137612285Y-89453980D01*
X137374190Y-88406361D02*
X137136095Y-89120647D01*
X137755142Y-89120647D01*
X138612285Y-88453980D02*
X138136095Y-88453980D01*
X138088476Y-88930171D01*
X138136095Y-88882552D01*
X138231333Y-88834933D01*
X138469428Y-88834933D01*
X138564666Y-88882552D01*
X138612285Y-88930171D01*
X138659904Y-89025409D01*
X138659904Y-89263504D01*
X138612285Y-89358742D01*
X138564666Y-89406361D01*
X138469428Y-89453980D01*
X138231333Y-89453980D01*
X138136095Y-89406361D01*
X138088476Y-89358742D01*
D11*
X128678952Y-61760790D02*
X128964666Y-61760790D01*
X128821809Y-62260790D02*
X128821809Y-61760790D01*
X129202761Y-62260790D02*
X129155142Y-62236980D01*
X129131333Y-62213171D01*
X129107523Y-62165552D01*
X129107523Y-62022695D01*
X129131333Y-61975076D01*
X129155142Y-61951266D01*
X129202761Y-61927457D01*
X129274190Y-61927457D01*
X129321809Y-61951266D01*
X129345619Y-61975076D01*
X129369428Y-62022695D01*
X129369428Y-62165552D01*
X129345619Y-62213171D01*
X129321809Y-62236980D01*
X129274190Y-62260790D01*
X129202761Y-62260790D01*
X129559904Y-62236980D02*
X129607523Y-62260790D01*
X129702761Y-62260790D01*
X129750380Y-62236980D01*
X129774190Y-62189361D01*
X129774190Y-62165552D01*
X129750380Y-62117933D01*
X129702761Y-62094123D01*
X129631333Y-62094123D01*
X129583714Y-62070314D01*
X129559904Y-62022695D01*
X129559904Y-61998885D01*
X129583714Y-61951266D01*
X129631333Y-61927457D01*
X129702761Y-61927457D01*
X129750380Y-61951266D01*
X129988476Y-62260790D02*
X129988476Y-61760790D01*
X130202761Y-62260790D02*
X130202761Y-61998885D01*
X130178952Y-61951266D01*
X130131333Y-61927457D01*
X130059904Y-61927457D01*
X130012285Y-61951266D01*
X129988476Y-61975076D01*
X130440857Y-62260790D02*
X130440857Y-61927457D01*
X130440857Y-61760790D02*
X130417047Y-61784600D01*
X130440857Y-61808409D01*
X130464666Y-61784600D01*
X130440857Y-61760790D01*
X130440857Y-61808409D01*
X130678952Y-62260790D02*
X130678952Y-61760790D01*
X130678952Y-61951266D02*
X130726571Y-61927457D01*
X130821809Y-61927457D01*
X130869428Y-61951266D01*
X130893238Y-61975076D01*
X130917047Y-62022695D01*
X130917047Y-62165552D01*
X130893238Y-62213171D01*
X130869428Y-62236980D01*
X130821809Y-62260790D01*
X130726571Y-62260790D01*
X130678952Y-62236980D01*
X131345619Y-62260790D02*
X131345619Y-61998885D01*
X131321809Y-61951266D01*
X131274190Y-61927457D01*
X131178952Y-61927457D01*
X131131333Y-61951266D01*
X131345619Y-62236980D02*
X131298000Y-62260790D01*
X131178952Y-62260790D01*
X131131333Y-62236980D01*
X131107523Y-62189361D01*
X131107523Y-62141742D01*
X131131333Y-62094123D01*
X131178952Y-62070314D01*
X131298000Y-62070314D01*
X131345619Y-62046504D01*
X128226571Y-62565790D02*
X128512285Y-62565790D01*
X128369428Y-63065790D02*
X128369428Y-62565790D01*
X128964666Y-63018171D02*
X128940857Y-63041980D01*
X128869428Y-63065790D01*
X128821809Y-63065790D01*
X128750380Y-63041980D01*
X128702761Y-62994361D01*
X128678952Y-62946742D01*
X128655142Y-62851504D01*
X128655142Y-62780076D01*
X128678952Y-62684838D01*
X128702761Y-62637219D01*
X128750380Y-62589600D01*
X128821809Y-62565790D01*
X128869428Y-62565790D01*
X128940857Y-62589600D01*
X128964666Y-62613409D01*
X129417047Y-62565790D02*
X129178952Y-62565790D01*
X129155142Y-62803885D01*
X129178952Y-62780076D01*
X129226571Y-62756266D01*
X129345619Y-62756266D01*
X129393238Y-62780076D01*
X129417047Y-62803885D01*
X129440857Y-62851504D01*
X129440857Y-62970552D01*
X129417047Y-63018171D01*
X129393238Y-63041980D01*
X129345619Y-63065790D01*
X129226571Y-63065790D01*
X129178952Y-63041980D01*
X129155142Y-63018171D01*
X129893238Y-62565790D02*
X129655142Y-62565790D01*
X129631333Y-62803885D01*
X129655142Y-62780076D01*
X129702761Y-62756266D01*
X129821809Y-62756266D01*
X129869428Y-62780076D01*
X129893238Y-62803885D01*
X129917047Y-62851504D01*
X129917047Y-62970552D01*
X129893238Y-63018171D01*
X129869428Y-63041980D01*
X129821809Y-63065790D01*
X129702761Y-63065790D01*
X129655142Y-63041980D01*
X129631333Y-63018171D01*
X130393238Y-63065790D02*
X130107523Y-63065790D01*
X130250380Y-63065790D02*
X130250380Y-62565790D01*
X130202761Y-62637219D01*
X130155142Y-62684838D01*
X130107523Y-62708647D01*
X130702761Y-62565790D02*
X130750380Y-62565790D01*
X130798000Y-62589600D01*
X130821809Y-62613409D01*
X130845619Y-62661028D01*
X130869428Y-62756266D01*
X130869428Y-62875314D01*
X130845619Y-62970552D01*
X130821809Y-63018171D01*
X130798000Y-63041980D01*
X130750380Y-63065790D01*
X130702761Y-63065790D01*
X130655142Y-63041980D01*
X130631333Y-63018171D01*
X130607523Y-62970552D01*
X130583714Y-62875314D01*
X130583714Y-62756266D01*
X130607523Y-62661028D01*
X130631333Y-62613409D01*
X130655142Y-62589600D01*
X130702761Y-62565790D01*
X131178952Y-62565790D02*
X131226571Y-62565790D01*
X131274190Y-62589600D01*
X131298000Y-62613409D01*
X131321809Y-62661028D01*
X131345619Y-62756266D01*
X131345619Y-62875314D01*
X131321809Y-62970552D01*
X131298000Y-63018171D01*
X131274190Y-63041980D01*
X131226571Y-63065790D01*
X131178952Y-63065790D01*
X131131333Y-63041980D01*
X131107523Y-63018171D01*
X131083714Y-62970552D01*
X131059904Y-62875314D01*
X131059904Y-62756266D01*
X131083714Y-62661028D01*
X131107523Y-62613409D01*
X131131333Y-62589600D01*
X131178952Y-62565790D01*
X131821809Y-63065790D02*
X131536095Y-63065790D01*
X131678952Y-63065790D02*
X131678952Y-62565790D01*
X131631333Y-62637219D01*
X131583714Y-62684838D01*
X131536095Y-62708647D01*
X129000380Y-63823171D02*
X128976571Y-63846980D01*
X128905142Y-63870790D01*
X128857523Y-63870790D01*
X128786095Y-63846980D01*
X128738476Y-63799361D01*
X128714666Y-63751742D01*
X128690857Y-63656504D01*
X128690857Y-63585076D01*
X128714666Y-63489838D01*
X128738476Y-63442219D01*
X128786095Y-63394600D01*
X128857523Y-63370790D01*
X128905142Y-63370790D01*
X128976571Y-63394600D01*
X129000380Y-63418409D01*
X129381333Y-63608885D02*
X129214666Y-63608885D01*
X129214666Y-63870790D02*
X129214666Y-63370790D01*
X129452761Y-63370790D01*
X129643238Y-63680314D02*
X130024190Y-63680314D01*
X130214666Y-63370790D02*
X130548000Y-63370790D01*
X130333714Y-63870790D01*
X130833714Y-63370790D02*
X130881333Y-63370790D01*
X130928952Y-63394600D01*
X130952761Y-63418409D01*
X130976571Y-63466028D01*
X131000380Y-63561266D01*
X131000380Y-63680314D01*
X130976571Y-63775552D01*
X130952761Y-63823171D01*
X130928952Y-63846980D01*
X130881333Y-63870790D01*
X130833714Y-63870790D01*
X130786095Y-63846980D01*
X130762285Y-63823171D01*
X130738476Y-63775552D01*
X130714666Y-63680314D01*
X130714666Y-63561266D01*
X130738476Y-63466028D01*
X130762285Y-63418409D01*
X130786095Y-63394600D01*
X130833714Y-63370790D01*
X131452761Y-63870790D02*
X131214666Y-63870790D01*
X131214666Y-63370790D01*
D10*
X148153714Y-89250780D02*
X148153714Y-88250780D01*
X148153714Y-88726971D02*
X148725142Y-88726971D01*
X148725142Y-89250780D02*
X148725142Y-88250780D01*
X149772761Y-89155542D02*
X149725142Y-89203161D01*
X149582285Y-89250780D01*
X149487047Y-89250780D01*
X149344190Y-89203161D01*
X149248952Y-89107923D01*
X149201333Y-89012685D01*
X149153714Y-88822209D01*
X149153714Y-88679352D01*
X149201333Y-88488876D01*
X149248952Y-88393638D01*
X149344190Y-88298400D01*
X149487047Y-88250780D01*
X149582285Y-88250780D01*
X149725142Y-88298400D01*
X149772761Y-88346019D01*
X150106095Y-88250780D02*
X150725142Y-88250780D01*
X150391809Y-88631733D01*
X150534666Y-88631733D01*
X150629904Y-88679352D01*
X150677523Y-88726971D01*
X150725142Y-88822209D01*
X150725142Y-89060304D01*
X150677523Y-89155542D01*
X150629904Y-89203161D01*
X150534666Y-89250780D01*
X150248952Y-89250780D01*
X150153714Y-89203161D01*
X150106095Y-89155542D01*
X151058476Y-88250780D02*
X151725142Y-88250780D01*
X151296571Y-89250780D01*
X152010857Y-88250780D02*
X152629904Y-88250780D01*
X152296571Y-88631733D01*
X152439428Y-88631733D01*
X152534666Y-88679352D01*
X152582285Y-88726971D01*
X152629904Y-88822209D01*
X152629904Y-89060304D01*
X152582285Y-89155542D01*
X152534666Y-89203161D01*
X152439428Y-89250780D01*
X152153714Y-89250780D01*
X152058476Y-89203161D01*
X152010857Y-89155542D01*
D11*
X141951057Y-109094490D02*
X141665342Y-109094490D01*
X141808200Y-109094490D02*
X141808200Y-108594490D01*
X141760580Y-108665919D01*
X141712961Y-108713538D01*
X141665342Y-108737347D01*
X141808200Y-110066157D02*
X141808200Y-109351871D01*
X131054457Y-91009690D02*
X130768742Y-91009690D01*
X130911600Y-91009690D02*
X130911600Y-90509690D01*
X130863980Y-90581119D01*
X130816361Y-90628738D01*
X130768742Y-90652547D01*
X130911600Y-91981357D02*
X130911600Y-91267071D01*
X123791790Y-104526390D02*
X123791790Y-104026390D01*
X123982266Y-104026390D01*
X124029885Y-104050200D01*
X124053695Y-104074009D01*
X124077504Y-104121628D01*
X124077504Y-104193057D01*
X124053695Y-104240676D01*
X124029885Y-104264485D01*
X123982266Y-104288295D01*
X123791790Y-104288295D01*
X124267980Y-104383533D02*
X124506076Y-104383533D01*
X124220361Y-104526390D02*
X124387028Y-104026390D01*
X124553695Y-104526390D01*
X124958457Y-104526390D02*
X124720361Y-104526390D01*
X124720361Y-104026390D01*
X125410838Y-104478771D02*
X125387028Y-104502580D01*
X125315600Y-104526390D01*
X125267980Y-104526390D01*
X125196552Y-104502580D01*
X125148933Y-104454961D01*
X125125123Y-104407342D01*
X125101314Y-104312104D01*
X125101314Y-104240676D01*
X125125123Y-104145438D01*
X125148933Y-104097819D01*
X125196552Y-104050200D01*
X125267980Y-104026390D01*
X125315600Y-104026390D01*
X125387028Y-104050200D01*
X125410838Y-104074009D01*
X125625123Y-104264485D02*
X125791790Y-104264485D01*
X125863219Y-104526390D02*
X125625123Y-104526390D01*
X125625123Y-104026390D01*
X125863219Y-104026390D01*
X121994171Y-104879009D02*
X122017980Y-104855200D01*
X122065600Y-104831390D01*
X122184647Y-104831390D01*
X122232266Y-104855200D01*
X122256076Y-104879009D01*
X122279885Y-104926628D01*
X122279885Y-104974247D01*
X122256076Y-105045676D01*
X121970361Y-105331390D01*
X122279885Y-105331390D01*
X122589409Y-104831390D02*
X122637028Y-104831390D01*
X122684647Y-104855200D01*
X122708457Y-104879009D01*
X122732266Y-104926628D01*
X122756076Y-105021866D01*
X122756076Y-105140914D01*
X122732266Y-105236152D01*
X122708457Y-105283771D01*
X122684647Y-105307580D01*
X122637028Y-105331390D01*
X122589409Y-105331390D01*
X122541790Y-105307580D01*
X122517980Y-105283771D01*
X122494171Y-105236152D01*
X122470361Y-105140914D01*
X122470361Y-105021866D01*
X122494171Y-104926628D01*
X122517980Y-104879009D01*
X122541790Y-104855200D01*
X122589409Y-104831390D01*
X122898933Y-104831390D02*
X123065600Y-105331390D01*
X123232266Y-104831390D01*
X123470361Y-105045676D02*
X123422742Y-105021866D01*
X123398933Y-104998057D01*
X123375123Y-104950438D01*
X123375123Y-104926628D01*
X123398933Y-104879009D01*
X123422742Y-104855200D01*
X123470361Y-104831390D01*
X123565600Y-104831390D01*
X123613219Y-104855200D01*
X123637028Y-104879009D01*
X123660838Y-104926628D01*
X123660838Y-104950438D01*
X123637028Y-104998057D01*
X123613219Y-105021866D01*
X123565600Y-105045676D01*
X123470361Y-105045676D01*
X123422742Y-105069485D01*
X123398933Y-105093295D01*
X123375123Y-105140914D01*
X123375123Y-105236152D01*
X123398933Y-105283771D01*
X123422742Y-105307580D01*
X123470361Y-105331390D01*
X123565600Y-105331390D01*
X123613219Y-105307580D01*
X123637028Y-105283771D01*
X123660838Y-105236152D01*
X123660838Y-105140914D01*
X123637028Y-105093295D01*
X123613219Y-105069485D01*
X123565600Y-105045676D01*
X123875123Y-105331390D02*
X123875123Y-104831390D01*
X123875123Y-105069485D02*
X124160838Y-105069485D01*
X124160838Y-105331390D02*
X124160838Y-104831390D01*
X124398933Y-105140914D02*
X124779885Y-105140914D01*
X124994171Y-104879009D02*
X125017980Y-104855200D01*
X125065600Y-104831390D01*
X125184647Y-104831390D01*
X125232266Y-104855200D01*
X125256076Y-104879009D01*
X125279885Y-104926628D01*
X125279885Y-104974247D01*
X125256076Y-105045676D01*
X124970361Y-105331390D01*
X125279885Y-105331390D01*
X125732266Y-104831390D02*
X125494171Y-104831390D01*
X125470361Y-105069485D01*
X125494171Y-105045676D01*
X125541790Y-105021866D01*
X125660838Y-105021866D01*
X125708457Y-105045676D01*
X125732266Y-105069485D01*
X125756076Y-105117104D01*
X125756076Y-105236152D01*
X125732266Y-105283771D01*
X125708457Y-105307580D01*
X125660838Y-105331390D01*
X125541790Y-105331390D01*
X125494171Y-105307580D01*
X125470361Y-105283771D01*
X126113219Y-104831390D02*
X126113219Y-105188533D01*
X126089409Y-105259961D01*
X126041790Y-105307580D01*
X125970361Y-105331390D01*
X125922742Y-105331390D01*
X126637028Y-105283771D02*
X126613219Y-105307580D01*
X126541790Y-105331390D01*
X126494171Y-105331390D01*
X126422742Y-105307580D01*
X126375123Y-105259961D01*
X126351314Y-105212342D01*
X126327504Y-105117104D01*
X126327504Y-105045676D01*
X126351314Y-104950438D01*
X126375123Y-104902819D01*
X126422742Y-104855200D01*
X126494171Y-104831390D01*
X126541790Y-104831390D01*
X126613219Y-104855200D01*
X126637028Y-104879009D01*
X127208457Y-104807580D02*
X126779885Y-105450438D01*
X127589409Y-104998057D02*
X127589409Y-105331390D01*
X127470361Y-104807580D02*
X127351314Y-105164723D01*
X127660838Y-105164723D01*
X122756076Y-106136390D02*
X122756076Y-105636390D01*
X122875123Y-105636390D01*
X122946552Y-105660200D01*
X122994171Y-105707819D01*
X123017980Y-105755438D01*
X123041790Y-105850676D01*
X123041790Y-105922104D01*
X123017980Y-106017342D01*
X122994171Y-106064961D01*
X122946552Y-106112580D01*
X122875123Y-106136390D01*
X122756076Y-106136390D01*
X123232266Y-105993533D02*
X123470361Y-105993533D01*
X123184647Y-106136390D02*
X123351314Y-105636390D01*
X123517980Y-106136390D01*
X123613219Y-105636390D02*
X123898933Y-105636390D01*
X123756076Y-106136390D02*
X123756076Y-105636390D01*
X124065600Y-105874485D02*
X124232266Y-105874485D01*
X124303695Y-106136390D02*
X124065600Y-106136390D01*
X124065600Y-105636390D01*
X124303695Y-105636390D01*
X124756076Y-106136390D02*
X124517980Y-106136390D01*
X124517980Y-105636390D01*
X125565600Y-106136390D02*
X125279885Y-106136390D01*
X125422742Y-106136390D02*
X125422742Y-105636390D01*
X125375123Y-105707819D01*
X125327504Y-105755438D01*
X125279885Y-105779247D01*
X125922742Y-105636390D02*
X125922742Y-105993533D01*
X125898933Y-106064961D01*
X125851314Y-106112580D01*
X125779885Y-106136390D01*
X125732266Y-106136390D01*
X126160838Y-105874485D02*
X126327504Y-105874485D01*
X126398933Y-106136390D02*
X126160838Y-106136390D01*
X126160838Y-105636390D01*
X126398933Y-105636390D01*
X126613219Y-106136390D02*
X126613219Y-105636390D01*
X126732266Y-105636390D01*
X126803695Y-105660200D01*
X126851314Y-105707819D01*
X126875123Y-105755438D01*
X126898933Y-105850676D01*
X126898933Y-105922104D01*
X126875123Y-106017342D01*
X126851314Y-106064961D01*
X126803695Y-106112580D01*
X126732266Y-106136390D01*
X126613219Y-106136390D01*
X141139990Y-106478290D02*
X141139990Y-105978290D01*
X141330466Y-105978290D01*
X141378085Y-106002100D01*
X141401895Y-106025909D01*
X141425704Y-106073528D01*
X141425704Y-106144957D01*
X141401895Y-106192576D01*
X141378085Y-106216385D01*
X141330466Y-106240195D01*
X141139990Y-106240195D01*
X141616180Y-106335433D02*
X141854276Y-106335433D01*
X141568561Y-106478290D02*
X141735228Y-105978290D01*
X141901895Y-106478290D01*
X142306657Y-106478290D02*
X142068561Y-106478290D01*
X142068561Y-105978290D01*
X142759038Y-106430671D02*
X142735228Y-106454480D01*
X142663800Y-106478290D01*
X142616180Y-106478290D01*
X142544752Y-106454480D01*
X142497133Y-106406861D01*
X142473323Y-106359242D01*
X142449514Y-106264004D01*
X142449514Y-106192576D01*
X142473323Y-106097338D01*
X142497133Y-106049719D01*
X142544752Y-106002100D01*
X142616180Y-105978290D01*
X142663800Y-105978290D01*
X142735228Y-106002100D01*
X142759038Y-106025909D01*
X142973323Y-106216385D02*
X143139990Y-106216385D01*
X143211419Y-106478290D02*
X142973323Y-106478290D01*
X142973323Y-105978290D01*
X143211419Y-105978290D01*
X139342371Y-106830909D02*
X139366180Y-106807100D01*
X139413800Y-106783290D01*
X139532847Y-106783290D01*
X139580466Y-106807100D01*
X139604276Y-106830909D01*
X139628085Y-106878528D01*
X139628085Y-106926147D01*
X139604276Y-106997576D01*
X139318561Y-107283290D01*
X139628085Y-107283290D01*
X139937609Y-106783290D02*
X139985228Y-106783290D01*
X140032847Y-106807100D01*
X140056657Y-106830909D01*
X140080466Y-106878528D01*
X140104276Y-106973766D01*
X140104276Y-107092814D01*
X140080466Y-107188052D01*
X140056657Y-107235671D01*
X140032847Y-107259480D01*
X139985228Y-107283290D01*
X139937609Y-107283290D01*
X139889990Y-107259480D01*
X139866180Y-107235671D01*
X139842371Y-107188052D01*
X139818561Y-107092814D01*
X139818561Y-106973766D01*
X139842371Y-106878528D01*
X139866180Y-106830909D01*
X139889990Y-106807100D01*
X139937609Y-106783290D01*
X140247133Y-106783290D02*
X140413800Y-107283290D01*
X140580466Y-106783290D01*
X140818561Y-106997576D02*
X140770942Y-106973766D01*
X140747133Y-106949957D01*
X140723323Y-106902338D01*
X140723323Y-106878528D01*
X140747133Y-106830909D01*
X140770942Y-106807100D01*
X140818561Y-106783290D01*
X140913800Y-106783290D01*
X140961419Y-106807100D01*
X140985228Y-106830909D01*
X141009038Y-106878528D01*
X141009038Y-106902338D01*
X140985228Y-106949957D01*
X140961419Y-106973766D01*
X140913800Y-106997576D01*
X140818561Y-106997576D01*
X140770942Y-107021385D01*
X140747133Y-107045195D01*
X140723323Y-107092814D01*
X140723323Y-107188052D01*
X140747133Y-107235671D01*
X140770942Y-107259480D01*
X140818561Y-107283290D01*
X140913800Y-107283290D01*
X140961419Y-107259480D01*
X140985228Y-107235671D01*
X141009038Y-107188052D01*
X141009038Y-107092814D01*
X140985228Y-107045195D01*
X140961419Y-107021385D01*
X140913800Y-106997576D01*
X141223323Y-107283290D02*
X141223323Y-106783290D01*
X141223323Y-107021385D02*
X141509038Y-107021385D01*
X141509038Y-107283290D02*
X141509038Y-106783290D01*
X141747133Y-107092814D02*
X142128085Y-107092814D01*
X142342371Y-106830909D02*
X142366180Y-106807100D01*
X142413800Y-106783290D01*
X142532847Y-106783290D01*
X142580466Y-106807100D01*
X142604276Y-106830909D01*
X142628085Y-106878528D01*
X142628085Y-106926147D01*
X142604276Y-106997576D01*
X142318561Y-107283290D01*
X142628085Y-107283290D01*
X143080466Y-106783290D02*
X142842371Y-106783290D01*
X142818561Y-107021385D01*
X142842371Y-106997576D01*
X142889990Y-106973766D01*
X143009038Y-106973766D01*
X143056657Y-106997576D01*
X143080466Y-107021385D01*
X143104276Y-107069004D01*
X143104276Y-107188052D01*
X143080466Y-107235671D01*
X143056657Y-107259480D01*
X143009038Y-107283290D01*
X142889990Y-107283290D01*
X142842371Y-107259480D01*
X142818561Y-107235671D01*
X143461419Y-106783290D02*
X143461419Y-107140433D01*
X143437609Y-107211861D01*
X143389990Y-107259480D01*
X143318561Y-107283290D01*
X143270942Y-107283290D01*
X143985228Y-107235671D02*
X143961419Y-107259480D01*
X143889990Y-107283290D01*
X143842371Y-107283290D01*
X143770942Y-107259480D01*
X143723323Y-107211861D01*
X143699514Y-107164242D01*
X143675704Y-107069004D01*
X143675704Y-106997576D01*
X143699514Y-106902338D01*
X143723323Y-106854719D01*
X143770942Y-106807100D01*
X143842371Y-106783290D01*
X143889990Y-106783290D01*
X143961419Y-106807100D01*
X143985228Y-106830909D01*
X144556657Y-106759480D02*
X144128085Y-107402338D01*
X144937609Y-106949957D02*
X144937609Y-107283290D01*
X144818561Y-106759480D02*
X144699514Y-107116623D01*
X145009038Y-107116623D01*
X119758590Y-96178523D02*
X119758590Y-96464238D01*
X119758590Y-96321380D02*
X119258590Y-96321380D01*
X119330019Y-96369000D01*
X119377638Y-96416619D01*
X119401447Y-96464238D01*
X119258590Y-95869000D02*
X119258590Y-95821380D01*
X119282400Y-95773761D01*
X119306209Y-95749952D01*
X119353828Y-95726142D01*
X119449066Y-95702333D01*
X119568114Y-95702333D01*
X119663352Y-95726142D01*
X119710971Y-95749952D01*
X119734780Y-95773761D01*
X119758590Y-95821380D01*
X119758590Y-95869000D01*
X119734780Y-95916619D01*
X119710971Y-95940428D01*
X119663352Y-95964238D01*
X119568114Y-95988047D01*
X119449066Y-95988047D01*
X119353828Y-95964238D01*
X119306209Y-95940428D01*
X119282400Y-95916619D01*
X119258590Y-95869000D01*
X119758590Y-95488047D02*
X119258590Y-95488047D01*
X119568114Y-95440428D02*
X119758590Y-95297571D01*
X119425257Y-95297571D02*
X119615733Y-95488047D01*
X119258590Y-94607095D02*
X119258590Y-94511857D01*
X119282400Y-94464238D01*
X119330019Y-94416619D01*
X119425257Y-94392809D01*
X119591923Y-94392809D01*
X119687161Y-94416619D01*
X119734780Y-94464238D01*
X119758590Y-94511857D01*
X119758590Y-94607095D01*
X119734780Y-94654714D01*
X119687161Y-94702333D01*
X119591923Y-94726142D01*
X119425257Y-94726142D01*
X119330019Y-94702333D01*
X119282400Y-94654714D01*
X119258590Y-94607095D01*
X119758590Y-94178523D02*
X119258590Y-94178523D01*
X119758590Y-93964238D02*
X119496685Y-93964238D01*
X119449066Y-93988047D01*
X119425257Y-94035666D01*
X119425257Y-94107095D01*
X119449066Y-94154714D01*
X119472876Y-94178523D01*
X119758590Y-93726142D02*
X119425257Y-93726142D01*
X119472876Y-93726142D02*
X119449066Y-93702333D01*
X119425257Y-93654714D01*
X119425257Y-93583285D01*
X119449066Y-93535666D01*
X119496685Y-93511857D01*
X119758590Y-93511857D01*
X119496685Y-93511857D02*
X119449066Y-93488047D01*
X119425257Y-93440428D01*
X119425257Y-93369000D01*
X119449066Y-93321380D01*
X119496685Y-93297571D01*
X119758590Y-93297571D01*
X120843657Y-91085890D02*
X120557942Y-91085890D01*
X120700800Y-91085890D02*
X120700800Y-90585890D01*
X120653180Y-90657319D01*
X120605561Y-90704938D01*
X120557942Y-90728747D01*
X120700800Y-92057557D02*
X120700800Y-91343271D01*
X156974552Y-61836990D02*
X157260266Y-61836990D01*
X157117409Y-62336990D02*
X157117409Y-61836990D01*
X157498361Y-62336990D02*
X157450742Y-62313180D01*
X157426933Y-62289371D01*
X157403123Y-62241752D01*
X157403123Y-62098895D01*
X157426933Y-62051276D01*
X157450742Y-62027466D01*
X157498361Y-62003657D01*
X157569790Y-62003657D01*
X157617409Y-62027466D01*
X157641219Y-62051276D01*
X157665028Y-62098895D01*
X157665028Y-62241752D01*
X157641219Y-62289371D01*
X157617409Y-62313180D01*
X157569790Y-62336990D01*
X157498361Y-62336990D01*
X157855504Y-62313180D02*
X157903123Y-62336990D01*
X157998361Y-62336990D01*
X158045980Y-62313180D01*
X158069790Y-62265561D01*
X158069790Y-62241752D01*
X158045980Y-62194133D01*
X157998361Y-62170323D01*
X157926933Y-62170323D01*
X157879314Y-62146514D01*
X157855504Y-62098895D01*
X157855504Y-62075085D01*
X157879314Y-62027466D01*
X157926933Y-62003657D01*
X157998361Y-62003657D01*
X158045980Y-62027466D01*
X158284076Y-62336990D02*
X158284076Y-61836990D01*
X158498361Y-62336990D02*
X158498361Y-62075085D01*
X158474552Y-62027466D01*
X158426933Y-62003657D01*
X158355504Y-62003657D01*
X158307885Y-62027466D01*
X158284076Y-62051276D01*
X158736457Y-62336990D02*
X158736457Y-62003657D01*
X158736457Y-61836990D02*
X158712647Y-61860800D01*
X158736457Y-61884609D01*
X158760266Y-61860800D01*
X158736457Y-61836990D01*
X158736457Y-61884609D01*
X158974552Y-62336990D02*
X158974552Y-61836990D01*
X158974552Y-62027466D02*
X159022171Y-62003657D01*
X159117409Y-62003657D01*
X159165028Y-62027466D01*
X159188838Y-62051276D01*
X159212647Y-62098895D01*
X159212647Y-62241752D01*
X159188838Y-62289371D01*
X159165028Y-62313180D01*
X159117409Y-62336990D01*
X159022171Y-62336990D01*
X158974552Y-62313180D01*
X159641219Y-62336990D02*
X159641219Y-62075085D01*
X159617409Y-62027466D01*
X159569790Y-62003657D01*
X159474552Y-62003657D01*
X159426933Y-62027466D01*
X159641219Y-62313180D02*
X159593600Y-62336990D01*
X159474552Y-62336990D01*
X159426933Y-62313180D01*
X159403123Y-62265561D01*
X159403123Y-62217942D01*
X159426933Y-62170323D01*
X159474552Y-62146514D01*
X159593600Y-62146514D01*
X159641219Y-62122704D01*
X156522171Y-62641990D02*
X156807885Y-62641990D01*
X156665028Y-63141990D02*
X156665028Y-62641990D01*
X157260266Y-63094371D02*
X157236457Y-63118180D01*
X157165028Y-63141990D01*
X157117409Y-63141990D01*
X157045980Y-63118180D01*
X156998361Y-63070561D01*
X156974552Y-63022942D01*
X156950742Y-62927704D01*
X156950742Y-62856276D01*
X156974552Y-62761038D01*
X156998361Y-62713419D01*
X157045980Y-62665800D01*
X157117409Y-62641990D01*
X157165028Y-62641990D01*
X157236457Y-62665800D01*
X157260266Y-62689609D01*
X157712647Y-62641990D02*
X157474552Y-62641990D01*
X157450742Y-62880085D01*
X157474552Y-62856276D01*
X157522171Y-62832466D01*
X157641219Y-62832466D01*
X157688838Y-62856276D01*
X157712647Y-62880085D01*
X157736457Y-62927704D01*
X157736457Y-63046752D01*
X157712647Y-63094371D01*
X157688838Y-63118180D01*
X157641219Y-63141990D01*
X157522171Y-63141990D01*
X157474552Y-63118180D01*
X157450742Y-63094371D01*
X158188838Y-62641990D02*
X157950742Y-62641990D01*
X157926933Y-62880085D01*
X157950742Y-62856276D01*
X157998361Y-62832466D01*
X158117409Y-62832466D01*
X158165028Y-62856276D01*
X158188838Y-62880085D01*
X158212647Y-62927704D01*
X158212647Y-63046752D01*
X158188838Y-63094371D01*
X158165028Y-63118180D01*
X158117409Y-63141990D01*
X157998361Y-63141990D01*
X157950742Y-63118180D01*
X157926933Y-63094371D01*
X158688838Y-63141990D02*
X158403123Y-63141990D01*
X158545980Y-63141990D02*
X158545980Y-62641990D01*
X158498361Y-62713419D01*
X158450742Y-62761038D01*
X158403123Y-62784847D01*
X158998361Y-62641990D02*
X159045980Y-62641990D01*
X159093600Y-62665800D01*
X159117409Y-62689609D01*
X159141219Y-62737228D01*
X159165028Y-62832466D01*
X159165028Y-62951514D01*
X159141219Y-63046752D01*
X159117409Y-63094371D01*
X159093600Y-63118180D01*
X159045980Y-63141990D01*
X158998361Y-63141990D01*
X158950742Y-63118180D01*
X158926933Y-63094371D01*
X158903123Y-63046752D01*
X158879314Y-62951514D01*
X158879314Y-62832466D01*
X158903123Y-62737228D01*
X158926933Y-62689609D01*
X158950742Y-62665800D01*
X158998361Y-62641990D01*
X159474552Y-62641990D02*
X159522171Y-62641990D01*
X159569790Y-62665800D01*
X159593600Y-62689609D01*
X159617409Y-62737228D01*
X159641219Y-62832466D01*
X159641219Y-62951514D01*
X159617409Y-63046752D01*
X159593600Y-63094371D01*
X159569790Y-63118180D01*
X159522171Y-63141990D01*
X159474552Y-63141990D01*
X159426933Y-63118180D01*
X159403123Y-63094371D01*
X159379314Y-63046752D01*
X159355504Y-62951514D01*
X159355504Y-62832466D01*
X159379314Y-62737228D01*
X159403123Y-62689609D01*
X159426933Y-62665800D01*
X159474552Y-62641990D01*
X160117409Y-63141990D02*
X159831695Y-63141990D01*
X159974552Y-63141990D02*
X159974552Y-62641990D01*
X159926933Y-62713419D01*
X159879314Y-62761038D01*
X159831695Y-62784847D01*
X157295980Y-63899371D02*
X157272171Y-63923180D01*
X157200742Y-63946990D01*
X157153123Y-63946990D01*
X157081695Y-63923180D01*
X157034076Y-63875561D01*
X157010266Y-63827942D01*
X156986457Y-63732704D01*
X156986457Y-63661276D01*
X157010266Y-63566038D01*
X157034076Y-63518419D01*
X157081695Y-63470800D01*
X157153123Y-63446990D01*
X157200742Y-63446990D01*
X157272171Y-63470800D01*
X157295980Y-63494609D01*
X157676933Y-63685085D02*
X157510266Y-63685085D01*
X157510266Y-63946990D02*
X157510266Y-63446990D01*
X157748361Y-63446990D01*
X157938838Y-63756514D02*
X158319790Y-63756514D01*
X158510266Y-63446990D02*
X158843600Y-63446990D01*
X158629314Y-63946990D01*
X159129314Y-63446990D02*
X159176933Y-63446990D01*
X159224552Y-63470800D01*
X159248361Y-63494609D01*
X159272171Y-63542228D01*
X159295980Y-63637466D01*
X159295980Y-63756514D01*
X159272171Y-63851752D01*
X159248361Y-63899371D01*
X159224552Y-63923180D01*
X159176933Y-63946990D01*
X159129314Y-63946990D01*
X159081695Y-63923180D01*
X159057885Y-63899371D01*
X159034076Y-63851752D01*
X159010266Y-63756514D01*
X159010266Y-63637466D01*
X159034076Y-63542228D01*
X159057885Y-63494609D01*
X159081695Y-63470800D01*
X159129314Y-63446990D01*
X159748361Y-63946990D02*
X159510266Y-63946990D01*
X159510266Y-63446990D01*
X125314057Y-109145290D02*
X125028342Y-109145290D01*
X125171200Y-109145290D02*
X125171200Y-108645290D01*
X125123580Y-108716719D01*
X125075961Y-108764338D01*
X125028342Y-108788147D01*
X125171200Y-110116957D02*
X125171200Y-109402671D01*
X119834790Y-90311123D02*
X119834790Y-90596838D01*
X119834790Y-90453980D02*
X119334790Y-90453980D01*
X119406219Y-90501600D01*
X119453838Y-90549219D01*
X119477647Y-90596838D01*
X119334790Y-90001600D02*
X119334790Y-89953980D01*
X119358600Y-89906361D01*
X119382409Y-89882552D01*
X119430028Y-89858742D01*
X119525266Y-89834933D01*
X119644314Y-89834933D01*
X119739552Y-89858742D01*
X119787171Y-89882552D01*
X119810980Y-89906361D01*
X119834790Y-89953980D01*
X119834790Y-90001600D01*
X119810980Y-90049219D01*
X119787171Y-90073028D01*
X119739552Y-90096838D01*
X119644314Y-90120647D01*
X119525266Y-90120647D01*
X119430028Y-90096838D01*
X119382409Y-90073028D01*
X119358600Y-90049219D01*
X119334790Y-90001600D01*
X119834790Y-89620647D02*
X119334790Y-89620647D01*
X119644314Y-89573028D02*
X119834790Y-89430171D01*
X119501457Y-89430171D02*
X119691933Y-89620647D01*
X119334790Y-88739695D02*
X119334790Y-88644457D01*
X119358600Y-88596838D01*
X119406219Y-88549219D01*
X119501457Y-88525409D01*
X119668123Y-88525409D01*
X119763361Y-88549219D01*
X119810980Y-88596838D01*
X119834790Y-88644457D01*
X119834790Y-88739695D01*
X119810980Y-88787314D01*
X119763361Y-88834933D01*
X119668123Y-88858742D01*
X119501457Y-88858742D01*
X119406219Y-88834933D01*
X119358600Y-88787314D01*
X119334790Y-88739695D01*
X119834790Y-88311123D02*
X119334790Y-88311123D01*
X119834790Y-88096838D02*
X119572885Y-88096838D01*
X119525266Y-88120647D01*
X119501457Y-88168266D01*
X119501457Y-88239695D01*
X119525266Y-88287314D01*
X119549076Y-88311123D01*
X119834790Y-87858742D02*
X119501457Y-87858742D01*
X119549076Y-87858742D02*
X119525266Y-87834933D01*
X119501457Y-87787314D01*
X119501457Y-87715885D01*
X119525266Y-87668266D01*
X119572885Y-87644457D01*
X119834790Y-87644457D01*
X119572885Y-87644457D02*
X119525266Y-87620647D01*
X119501457Y-87573028D01*
X119501457Y-87501600D01*
X119525266Y-87453980D01*
X119572885Y-87430171D01*
X119834790Y-87430171D01*
X161442447Y-105235280D02*
X161513876Y-105259090D01*
X161632923Y-105259090D01*
X161680542Y-105235280D01*
X161704352Y-105211471D01*
X161728161Y-105163852D01*
X161728161Y-105116233D01*
X161704352Y-105068614D01*
X161680542Y-105044804D01*
X161632923Y-105020995D01*
X161537685Y-104997185D01*
X161490066Y-104973376D01*
X161466257Y-104949566D01*
X161442447Y-104901947D01*
X161442447Y-104854328D01*
X161466257Y-104806709D01*
X161490066Y-104782900D01*
X161537685Y-104759090D01*
X161656733Y-104759090D01*
X161728161Y-104782900D01*
X161918638Y-105235280D02*
X161990066Y-105259090D01*
X162109114Y-105259090D01*
X162156733Y-105235280D01*
X162180542Y-105211471D01*
X162204352Y-105163852D01*
X162204352Y-105116233D01*
X162180542Y-105068614D01*
X162156733Y-105044804D01*
X162109114Y-105020995D01*
X162013876Y-104997185D01*
X161966257Y-104973376D01*
X161942447Y-104949566D01*
X161918638Y-104901947D01*
X161918638Y-104854328D01*
X161942447Y-104806709D01*
X161966257Y-104782900D01*
X162013876Y-104759090D01*
X162132923Y-104759090D01*
X162204352Y-104782900D01*
X162347209Y-104759090D02*
X162632923Y-104759090D01*
X162490066Y-105259090D02*
X162490066Y-104759090D01*
X160275780Y-105611709D02*
X160299590Y-105587900D01*
X160347209Y-105564090D01*
X160466257Y-105564090D01*
X160513876Y-105587900D01*
X160537685Y-105611709D01*
X160561495Y-105659328D01*
X160561495Y-105706947D01*
X160537685Y-105778376D01*
X160251971Y-106064090D01*
X160561495Y-106064090D01*
X160847209Y-105778376D02*
X160799590Y-105754566D01*
X160775780Y-105730757D01*
X160751971Y-105683138D01*
X160751971Y-105659328D01*
X160775780Y-105611709D01*
X160799590Y-105587900D01*
X160847209Y-105564090D01*
X160942447Y-105564090D01*
X160990066Y-105587900D01*
X161013876Y-105611709D01*
X161037685Y-105659328D01*
X161037685Y-105683138D01*
X161013876Y-105730757D01*
X160990066Y-105754566D01*
X160942447Y-105778376D01*
X160847209Y-105778376D01*
X160799590Y-105802185D01*
X160775780Y-105825995D01*
X160751971Y-105873614D01*
X160751971Y-105968852D01*
X160775780Y-106016471D01*
X160799590Y-106040280D01*
X160847209Y-106064090D01*
X160942447Y-106064090D01*
X160990066Y-106040280D01*
X161013876Y-106016471D01*
X161037685Y-105968852D01*
X161037685Y-105873614D01*
X161013876Y-105825995D01*
X160990066Y-105802185D01*
X160942447Y-105778376D01*
X161228161Y-106040280D02*
X161299590Y-106064090D01*
X161418638Y-106064090D01*
X161466257Y-106040280D01*
X161490066Y-106016471D01*
X161513876Y-105968852D01*
X161513876Y-105921233D01*
X161490066Y-105873614D01*
X161466257Y-105849804D01*
X161418638Y-105825995D01*
X161323400Y-105802185D01*
X161275780Y-105778376D01*
X161251971Y-105754566D01*
X161228161Y-105706947D01*
X161228161Y-105659328D01*
X161251971Y-105611709D01*
X161275780Y-105587900D01*
X161323400Y-105564090D01*
X161442447Y-105564090D01*
X161513876Y-105587900D01*
X161894828Y-105802185D02*
X161728161Y-105802185D01*
X161728161Y-106064090D02*
X161728161Y-105564090D01*
X161966257Y-105564090D01*
X162251971Y-105564090D02*
X162299590Y-105564090D01*
X162347209Y-105587900D01*
X162371019Y-105611709D01*
X162394828Y-105659328D01*
X162418638Y-105754566D01*
X162418638Y-105873614D01*
X162394828Y-105968852D01*
X162371019Y-106016471D01*
X162347209Y-106040280D01*
X162299590Y-106064090D01*
X162251971Y-106064090D01*
X162204352Y-106040280D01*
X162180542Y-106016471D01*
X162156733Y-105968852D01*
X162132923Y-105873614D01*
X162132923Y-105754566D01*
X162156733Y-105659328D01*
X162180542Y-105611709D01*
X162204352Y-105587900D01*
X162251971Y-105564090D01*
X162847209Y-105730757D02*
X162847209Y-106064090D01*
X162728161Y-105540280D02*
X162609114Y-105897423D01*
X162918638Y-105897423D01*
X163204352Y-105564090D02*
X163251971Y-105564090D01*
X163299590Y-105587900D01*
X163323400Y-105611709D01*
X163347209Y-105659328D01*
X163371019Y-105754566D01*
X163371019Y-105873614D01*
X163347209Y-105968852D01*
X163323400Y-106016471D01*
X163299590Y-106040280D01*
X163251971Y-106064090D01*
X163204352Y-106064090D01*
X163156733Y-106040280D01*
X163132923Y-106016471D01*
X163109114Y-105968852D01*
X163085304Y-105873614D01*
X163085304Y-105754566D01*
X163109114Y-105659328D01*
X163132923Y-105611709D01*
X163156733Y-105587900D01*
X163204352Y-105564090D01*
X121402457Y-65584290D02*
X121116742Y-65584290D01*
X121259600Y-65584290D02*
X121259600Y-65084290D01*
X121211980Y-65155719D01*
X121164361Y-65203338D01*
X121116742Y-65227147D01*
X121259600Y-66555957D02*
X121259600Y-65841671D01*
X130262333Y-135633590D02*
X129976619Y-135633590D01*
X130119476Y-135633590D02*
X130119476Y-135133590D01*
X130071857Y-135205019D01*
X130024238Y-135252638D01*
X129976619Y-135276447D01*
X130476619Y-135443114D02*
X130857571Y-135443114D01*
X141856590Y-62610085D02*
X141856590Y-62895800D01*
X141856590Y-62752942D02*
X141356590Y-62752942D01*
X141428019Y-62800561D01*
X141475638Y-62848180D01*
X141499447Y-62895800D01*
X141356590Y-62300561D02*
X141356590Y-62252942D01*
X141380400Y-62205323D01*
X141404209Y-62181514D01*
X141451828Y-62157704D01*
X141547066Y-62133895D01*
X141666114Y-62133895D01*
X141761352Y-62157704D01*
X141808971Y-62181514D01*
X141832780Y-62205323D01*
X141856590Y-62252942D01*
X141856590Y-62300561D01*
X141832780Y-62348180D01*
X141808971Y-62371990D01*
X141761352Y-62395800D01*
X141666114Y-62419609D01*
X141547066Y-62419609D01*
X141451828Y-62395800D01*
X141404209Y-62371990D01*
X141380400Y-62348180D01*
X141356590Y-62300561D01*
X141356590Y-61824371D02*
X141356590Y-61776752D01*
X141380400Y-61729133D01*
X141404209Y-61705323D01*
X141451828Y-61681514D01*
X141547066Y-61657704D01*
X141666114Y-61657704D01*
X141761352Y-61681514D01*
X141808971Y-61705323D01*
X141832780Y-61729133D01*
X141856590Y-61776752D01*
X141856590Y-61824371D01*
X141832780Y-61871990D01*
X141808971Y-61895800D01*
X141761352Y-61919609D01*
X141666114Y-61943419D01*
X141547066Y-61943419D01*
X141451828Y-61919609D01*
X141404209Y-61895800D01*
X141380400Y-61871990D01*
X141356590Y-61824371D01*
X141523257Y-61062466D02*
X141856590Y-61062466D01*
X141570876Y-61062466D02*
X141547066Y-61038657D01*
X141523257Y-60991038D01*
X141523257Y-60919609D01*
X141547066Y-60871990D01*
X141594685Y-60848180D01*
X141856590Y-60848180D01*
X141594685Y-60443419D02*
X141594685Y-60610085D01*
X141856590Y-60610085D02*
X141356590Y-60610085D01*
X141356590Y-60371990D01*
X148224857Y-65609690D02*
X147939142Y-65609690D01*
X148082000Y-65609690D02*
X148082000Y-65109690D01*
X148034380Y-65181119D01*
X147986761Y-65228738D01*
X147939142Y-65252547D01*
X148082000Y-66581357D02*
X148082000Y-65867071D01*
X122194676Y-88393490D02*
X122194676Y-87893490D01*
X122385152Y-87893490D01*
X122432771Y-87917300D01*
X122456580Y-87941109D01*
X122480390Y-87988728D01*
X122480390Y-88060157D01*
X122456580Y-88107776D01*
X122432771Y-88131585D01*
X122385152Y-88155395D01*
X122194676Y-88155395D01*
X122694676Y-88393490D02*
X122694676Y-87893490D01*
X123218485Y-88345871D02*
X123194676Y-88369680D01*
X123123247Y-88393490D01*
X123075628Y-88393490D01*
X123004200Y-88369680D01*
X122956580Y-88322061D01*
X122932771Y-88274442D01*
X122908961Y-88179204D01*
X122908961Y-88107776D01*
X122932771Y-88012538D01*
X122956580Y-87964919D01*
X123004200Y-87917300D01*
X123075628Y-87893490D01*
X123123247Y-87893490D01*
X123194676Y-87917300D01*
X123218485Y-87941109D01*
X121230390Y-89198490D02*
X120944676Y-89198490D01*
X121087533Y-89198490D02*
X121087533Y-88698490D01*
X121039914Y-88769919D01*
X120992295Y-88817538D01*
X120944676Y-88841347D01*
X121420866Y-88746109D02*
X121444676Y-88722300D01*
X121492295Y-88698490D01*
X121611342Y-88698490D01*
X121658961Y-88722300D01*
X121682771Y-88746109D01*
X121706580Y-88793728D01*
X121706580Y-88841347D01*
X121682771Y-88912776D01*
X121397057Y-89198490D01*
X121706580Y-89198490D01*
X122206580Y-89150871D02*
X122182771Y-89174680D01*
X122111342Y-89198490D01*
X122063723Y-89198490D01*
X121992295Y-89174680D01*
X121944676Y-89127061D01*
X121920866Y-89079442D01*
X121897057Y-88984204D01*
X121897057Y-88912776D01*
X121920866Y-88817538D01*
X121944676Y-88769919D01*
X121992295Y-88722300D01*
X122063723Y-88698490D01*
X122111342Y-88698490D01*
X122182771Y-88722300D01*
X122206580Y-88746109D01*
X122658961Y-88698490D02*
X122420866Y-88698490D01*
X122397057Y-88936585D01*
X122420866Y-88912776D01*
X122468485Y-88888966D01*
X122587533Y-88888966D01*
X122635152Y-88912776D01*
X122658961Y-88936585D01*
X122682771Y-88984204D01*
X122682771Y-89103252D01*
X122658961Y-89150871D01*
X122635152Y-89174680D01*
X122587533Y-89198490D01*
X122468485Y-89198490D01*
X122420866Y-89174680D01*
X122397057Y-89150871D01*
X122992295Y-88698490D02*
X123039914Y-88698490D01*
X123087533Y-88722300D01*
X123111342Y-88746109D01*
X123135152Y-88793728D01*
X123158961Y-88888966D01*
X123158961Y-89008014D01*
X123135152Y-89103252D01*
X123111342Y-89150871D01*
X123087533Y-89174680D01*
X123039914Y-89198490D01*
X122992295Y-89198490D01*
X122944676Y-89174680D01*
X122920866Y-89150871D01*
X122897057Y-89103252D01*
X122873247Y-89008014D01*
X122873247Y-88888966D01*
X122897057Y-88793728D01*
X122920866Y-88746109D01*
X122944676Y-88722300D01*
X122992295Y-88698490D01*
X123444676Y-88912776D02*
X123397057Y-88888966D01*
X123373247Y-88865157D01*
X123349438Y-88817538D01*
X123349438Y-88793728D01*
X123373247Y-88746109D01*
X123397057Y-88722300D01*
X123444676Y-88698490D01*
X123539914Y-88698490D01*
X123587533Y-88722300D01*
X123611342Y-88746109D01*
X123635152Y-88793728D01*
X123635152Y-88817538D01*
X123611342Y-88865157D01*
X123587533Y-88888966D01*
X123539914Y-88912776D01*
X123444676Y-88912776D01*
X123397057Y-88936585D01*
X123373247Y-88960395D01*
X123349438Y-89008014D01*
X123349438Y-89103252D01*
X123373247Y-89150871D01*
X123397057Y-89174680D01*
X123444676Y-89198490D01*
X123539914Y-89198490D01*
X123587533Y-89174680D01*
X123611342Y-89150871D01*
X123635152Y-89103252D01*
X123635152Y-89008014D01*
X123611342Y-88960395D01*
X123587533Y-88936585D01*
X123539914Y-88912776D01*
X123825628Y-89055633D02*
X124063723Y-89055633D01*
X123778009Y-89198490D02*
X123944676Y-88698490D01*
X124111342Y-89198490D01*
X127022990Y-132510885D02*
X127022990Y-132796600D01*
X127022990Y-132653742D02*
X126522990Y-132653742D01*
X126594419Y-132701361D01*
X126642038Y-132748980D01*
X126665847Y-132796600D01*
X126522990Y-132201361D02*
X126522990Y-132153742D01*
X126546800Y-132106123D01*
X126570609Y-132082314D01*
X126618228Y-132058504D01*
X126713466Y-132034695D01*
X126832514Y-132034695D01*
X126927752Y-132058504D01*
X126975371Y-132082314D01*
X126999180Y-132106123D01*
X127022990Y-132153742D01*
X127022990Y-132201361D01*
X126999180Y-132248980D01*
X126975371Y-132272790D01*
X126927752Y-132296600D01*
X126832514Y-132320409D01*
X126713466Y-132320409D01*
X126618228Y-132296600D01*
X126570609Y-132272790D01*
X126546800Y-132248980D01*
X126522990Y-132201361D01*
X126522990Y-131725171D02*
X126522990Y-131677552D01*
X126546800Y-131629933D01*
X126570609Y-131606123D01*
X126618228Y-131582314D01*
X126713466Y-131558504D01*
X126832514Y-131558504D01*
X126927752Y-131582314D01*
X126975371Y-131606123D01*
X126999180Y-131629933D01*
X127022990Y-131677552D01*
X127022990Y-131725171D01*
X126999180Y-131772790D01*
X126975371Y-131796600D01*
X126927752Y-131820409D01*
X126832514Y-131844219D01*
X126713466Y-131844219D01*
X126618228Y-131820409D01*
X126570609Y-131796600D01*
X126546800Y-131772790D01*
X126522990Y-131725171D01*
X126689657Y-130963266D02*
X127022990Y-130963266D01*
X126737276Y-130963266D02*
X126713466Y-130939457D01*
X126689657Y-130891838D01*
X126689657Y-130820409D01*
X126713466Y-130772790D01*
X126761085Y-130748980D01*
X127022990Y-130748980D01*
X126761085Y-130344219D02*
X126761085Y-130510885D01*
X127022990Y-130510885D02*
X126522990Y-130510885D01*
X126522990Y-130272790D01*
M02*
